<svg xmlns="http://www.w3.org/2000/svg" width="18" height="18" viewBox="0 0 18 18">
    <g fill="none" fill-rule="evenodd">
        <path d="M0 0H24V24H0z" transform="translate(-3 -4)"/>
        <path fill="#AEB9C1" d="M12 22c-4.97 0-9-4.03-9-9s4.03-9 9-9 9 4.03 9 9-4.03 9-9 9z" opacity=".3" transform="translate(-3 -4)"/>
        <path fill="#AEB9C1" d="M11.963 7.5h.085c.256 0 .471.195.497.45L13 12.5l3.248 1.856c.156.09.252.255.252.434V15c0 .21-.171.382-.382.382-.034 0-.068-.005-.1-.014l-4.62-1.26c-.23-.062-.385-.28-.366-.52l.432-5.626c.02-.26.238-.462.499-.462z" transform="translate(-3 -4)"/>
    </g>
</svg>
