<svg xmlns="http://www.w3.org/2000/svg" viewBox="0 0 12.9 16.58"><defs><style>.cls-1{fill:#e04e97;}.cls-2{fill:#4a69b2;}.cls-3{fill:#1b71b9;}.cls-4{fill:#fefefe;}.cls-5{fill:#f5f5f6;}.cls-6{fill:#fefeff;}</style></defs><g id="Layer_2" data-name="Layer 2"><g id="Layer_1-2" data-name="Layer 1"><path class="cls-1" d="M12.88,6.4a5.47,5.47,0,0,1-.36,2c-.61,2.34-1.23,4.67-1.84,7a1.39,1.39,0,0,1-1.23,1.1c-1,.07-1.94,0-2.91,0s-2.12,0-3.18,0a1.32,1.32,0,0,1-1.14-1C1.49,12.77.78,10,.05,7.26a4.34,4.34,0,0,1,0-1A.14.14,0,0,1,.15,6.1c.11-.09.25,0,.37,0H12.37c.13,0,.32-.11.38.12C13,6.14,12.87,6.32,12.88,6.4Z"/><path class="cls-2" d="M12.71,4.81c0,.24-.16.24-.35.2L7,4,.49,2.69C.05,2.6,0,2.48.19,2.07a1.37,1.37,0,0,1,1.56-.71c.57.13,1.15.22,1.73.33.36.07.28-.24.31-.39A1.48,1.48,0,0,1,5,0a1.94,1.94,0,0,0,.68,0L8.49.58a1.5,1.5,0,0,1,1.2,1.86c-.11.33,0,.49.34.54a10.23,10.23,0,0,1,1.75.35,1.31,1.31,0,0,1,.93,1A.82.82,0,0,0,12.71,4.81Z"/><path class="cls-3" d="M5.64,0A.81.81,0,0,1,5,0,1.56,1.56,0,0,1,5.64,0Z"/><path class="cls-4" d="M4.65,14.28c0,.21-.09.34-.29.37A.32.32,0,0,1,4,14.4l-.47-1.76c-.36-1.35-.73-2.7-1.09-4.05,0-.17-.1-.35,0-.5S3,8,3.06,8.31c.27,1,.53,2,.79,3l.75,2.81Z"/><path class="cls-4" d="M10.52,8.42l-.47,1.82C9.7,11.55,9.34,12.85,9,14.15l-.06.22a.32.32,0,0,1-.46.26c-.22-.06-.27-.25-.22-.46l.54-2c.31-1.19.63-2.37.94-3.55,0-.14.07-.27.12-.4A.33.33,0,0,1,10.24,8C10.43,8,10.53,8.17,10.52,8.42Z"/><path class="cls-5" d="M6.09,8.25c.07-.2.2-.32.42-.26s.28.21.28.43v5.8c0,.19,0,.36-.24.42a.37.37,0,0,1-.46-.23A.57.57,0,0,1,6,14.05V8.61A.57.57,0,0,1,6.09,8.25Z"/><path class="cls-6" d="M5.85,1c.65.14,1.43.28,2.18.48a1,1,0,0,1,.7,1c0,.2-.05.28-.26.24C7.28,2.43,6.09,2.19,4.89,2c-.29-.05-.28-.18-.16-.39A1.2,1.2,0,0,1,5.85,1Z"/></g></g></svg>