<svg xmlns="http://www.w3.org/2000/svg" viewBox="0 0 111.8 152.36"><defs><style>.cls-1{fill:#ef4870;}.cls-2{fill:#fff;}.cls-3{fill:#ef4a71;}.cls-4{fill:#ef4970;}</style></defs><g id="Layer_2" data-name="Layer 2"><g id="Layer_1-2" data-name="Layer 1"><path class="cls-1" d="M43.82,80.31C43.84,78.16,45,77,47.25,77s3.29,1.2,3.37,3.31c0,2.29-1.21,3.47-3.38,3.45A3.12,3.12,0,0,1,43.82,80.31Z"/><path class="cls-1" d="M43.73,98c0-1.25,1-1.32,2-1.32,3.37,0,6.74,0,10.11,0h9.56c1,0,2.15,0,2.13,1.42,0,1.24-1,1.32-2,1.32q-10,0-19.94,0C44.59,99.43,43.69,99.25,43.73,98Z"/><path class="cls-1" d="M60.9,80.09A3.4,3.4,0,0,1,64.84,77a3.12,3.12,0,0,1,3,3.72c-.2,2.11-1.62,3.14-3.74,3A3.38,3.38,0,0,1,60.9,80.09Z"/><path class="cls-1" d="M111.63,143.44c-1.62-12.25-3.33-24.5-5-36.74q-5.39-38.9-10.76-77.79c-.61-4.42-2.81-6.43-7.24-6.47-4.19,0-8.38-.09-12.57,0-2,.07-2.8-.37-2.65-2.53.19-2.44,0-4.91,0-7.36A12.48,12.48,0,0,0,60.91,0C57.54,0,54.17,0,50.8,0A12.34,12.34,0,0,0,38.32,12.5c0,2.55-.1,5.1,0,7.65.09,1.75-.44,2.38-2.28,2.33-4.65-.12-9.29-.07-13.94,0-3.76,0-6.22,2-6.7,5.47q-2.53,18.38-5,36.76Q7.56,86.44,4.68,108.2c-1.57,12-3.19,24-4.57,36-.67,5.9,1.65,8.18,7.62,8.18h95.93C110.18,152.36,112.48,149.87,111.63,143.44ZM41,20.14c.12-2.62,0-5.26,0-7.9a9.73,9.73,0,0,1,9.4-9.47c3.54-.11,7.09-.1,10.64,0a9.86,9.86,0,0,1,9.55,9.65c.08,2.73,0,5.46.12,8.18,0,1.43-.46,2-1.87,1.84a2.61,2.61,0,0,0-.28,0H55.8c-4.19,0-8.37-.09-12.55,0C41.4,22.54,40.92,21.87,41,20.14ZM17.62,31.34a28.35,28.35,0,0,1,.83-4c.8-2,2.63-2.22,4.56-2.22q29.07,0,58.15,0c2.37,0,4.74,0,7.1,0,3.29,0,4.36.94,4.91,4.16.14.81.24,1.62.42,2.42.44,1.9-.25,2.5-2.22,2.48-12-.08-24,0-36,0-11.75,0-23.49-.08-35.22.06C17.67,34.27,17.11,33.5,17.62,31.34Zm-13.8,104c2.45-17.56,4.71-35.14,7-52.72,1.89-14.33,3.83-28.66,5.6-43,.26-2.12.77-2.93,3.07-2.93q36.09.12,72.18,0c2.13,0,2.75.69,3,2.71,2.6,19.65,5.32,39.28,8,58.92,1.68,12.34,3.32,24.69,5.08,37,.32,2.3-.49,2.72-2.59,2.71-16.5-.08-33,0-49.49,0s-33,0-49.48,0C4.15,138.08,3.49,137.75,3.82,135.37ZM105.5,149.63c-.63.06-1.27,0-1.91,0H8.26c-5.15,0-7.34-3.44-5.2-8.15.58-1.29,1.69-.85,2.6-.86q16.67,0,33.32,0h66.38c3.38,0,3.51.16,3.81,4.85A3.66,3.66,0,0,1,105.5,149.63Z"/><path class="cls-2" d="M43.82,80.31C43.84,78.16,45,77,47.25,77s3.29,1.2,3.37,3.31c0,2.29-1.21,3.47-3.38,3.45A3.12,3.12,0,0,1,43.82,80.31Z"/><path class="cls-2" d="M67.49,98.11c0,1.24-1,1.32-2,1.32q-10,0-19.94,0c-1,0-1.9-.18-1.86-1.42s1-1.32,2-1.32c3.37,0,6.74,0,10.11,0h9.56C66.39,96.69,67.51,96.65,67.49,98.11Z"/><path class="cls-2" d="M67.86,80.68c-.2,2.11-1.62,3.14-3.74,3A3.4,3.4,0,1,1,64.84,77,3.12,3.12,0,0,1,67.86,80.68Z"/><path class="cls-1" d="M67.49,98.11c0,1.24-1,1.32-2,1.32q-10,0-19.94,0c-1,0-1.9-.18-1.86-1.42s1-1.32,2-1.32c3.37,0,6.74,0,10.11,0h9.56C66.39,96.69,67.51,96.65,67.49,98.11Z"/><path class="cls-3" d="M67.86,80.68c-.2,2.11-1.62,3.14-3.74,3A3.4,3.4,0,1,1,64.84,77,3.12,3.12,0,0,1,67.86,80.68Z"/><path class="cls-4" d="M50.62,80.26c0,2.29-1.21,3.47-3.38,3.45a3.12,3.12,0,0,1-3.42-3.4C43.84,78.16,45,77,47.25,77S50.54,78.15,50.62,80.26Z"/></g></g></svg>