<svg xmlns="http://www.w3.org/2000/svg" width="15" height="20" viewBox="0 0 15 20">
    <g fill="none" fill-rule="evenodd">
        <path d="M0 0L24 0 24 24 0 24z" transform="translate(-6 -2)"/>
        <path fill="#AEB9C1" fill-rule="nonzero" d="M13.707 14.293c.39.39.39 1.024 0 1.414-.39.39-1.024.39-1.414 0l-6-6c-.379-.378-.392-.988-.03-1.383l5.5-6c.373-.407 1.006-.434 1.413-.061.407.373.434 1.006.061 1.413L8.384 8.97l5.323 5.323z" transform="translate(-6 -2)"/>
        <path fill="#AEB9C1" fill-rule="nonzero" d="M11.5 8c-.552 0-1 .448-1 1s.448 1 1 1H18c.552 0 1 .448 1 1v10.042c0 .552.448 1 1 1s1-.448 1-1V11c0-1.657-1.343-3-3-3h-6.5z" opacity=".3" transform="translate(-6 -2)"/>
    </g>
</svg>
