<svg xmlns="http://www.w3.org/2000/svg" width="20" height="15" viewBox="0 0 20 15">
    <g fill="none" fill-rule="evenodd" transform="translate(-2 -5)">
        <path d="M0 0H24V24H0z"/>
        <path fill="#AEB9C1" d="M9 10v9l1.153.384c1.223.408 2.505.616 3.794.616h3.594c1.43 0 2.66-1.01 2.941-2.412l.75-3.746c.324-1.624-.73-3.205-2.354-3.53-.26-.052-.524-.069-.788-.051l-3.59.239.364-4.006c.069-.754-.487-1.42-1.24-1.488C13.583 5.002 13.541 5 13.5 5c-.93 0-1.793.488-2.272 1.286L9 10z"/>
        <rect width="5" height="11" x="2" y="9" fill="#AEB9C1" opacity=".3" rx="1"/>
    </g>
</svg>
