<svg xmlns="http://www.w3.org/2000/svg" width="26" height="30" viewBox="0 0 26 30">
    <path fill="#FFF" d="M5.87 5.003v1.845H4.474c-.407.042-.77.365-.856.764L.02 23.916c-.128.571.373 1.195.958 1.193h10.598c1.047 2.67 3.652 4.565 6.685 4.565 3.95 0 7.174-3.224 7.174-7.174 0-3.485-2.505-6.401-5.808-7.041l-1.723-7.847c-.096-.43-.516-.766-.958-.764h-1.294V5.003c0-2.607-2.226-4.677-4.891-4.677S5.87 2.396 5.87 5.003zm4.891-2.72c1.67 0 2.935 1.222 2.935 2.72v1.845h-5.87V5.003c0-1.498 1.264-2.72 2.935-2.72zm-5.4 6.521h.509v.326c-.008.517.461.993.978.993.517 0 .985-.476.978-.993v-.326h5.87v.326c-.008.517.461.993.978.993.517 0 .986-.476.978-.993v-.326h.51l1.447 6.553c-3.648.331-6.522 3.412-6.522 7.143 0 .22.011.438.03.652H2.202l3.16-14.348zM23.477 22.5c0 2.893-2.324 5.217-5.217 5.217s-5.217-2.324-5.217-5.217 2.324-5.217 5.217-5.217 5.217 2.324 5.217 5.217zm-2.649-2.323l-3.281 3.28-1.274-1.059c-.382-.389-1.103-.359-1.45.06-.35.42-.246 1.134.207 1.438l1.956 1.63c.37.307.974.28 1.315-.06l3.913-3.914c.291-.284.375-.758.198-1.125-.176-.366-.6-.597-1.003-.546-.22.03-.428.135-.581.296z"/>
</svg>
