<svg xmlns="http://www.w3.org/2000/svg" width="11" height="15" viewBox="0 0 11 15">
    <g fill="none">
        <path fill="#79C482" d="M5.273 0C2.364 0 0 2.364 0 5.273c0 .985.273 1.943.791 2.769l4.125 6.75c.07.115.176.185.299.203.167.026.351-.044.448-.211L9.8 7.972c.492-.809.747-1.75.747-2.699C10.547 2.364 8.183 0 5.273 0zm0 7.91c-1.476 0-2.636-1.195-2.636-2.637 0-1.45 1.186-2.636 2.636-2.636 1.45 0 2.637 1.186 2.637 2.636 0 1.433-1.142 2.637-2.637 2.637z"/>
        <path fill="#9CD3A3" d="M5.273 0v2.637c1.45 0 2.637 1.186 2.637 2.636 0 1.433-1.142 2.637-2.637 2.637V15c.15.003.305-.069.39-.216L9.8 7.972c.492-.809.747-1.75.747-2.699C10.547 2.364 8.183 0 5.273 0z"/>
    </g>
</svg>
