<svg xmlns="http://www.w3.org/2000/svg" viewBox="0 0 439.41 285.25"><defs><style>.cls-1{isolation:isolate;}.cls-2{fill:#edc600;}.cls-11,.cls-3,.cls-7{mix-blend-mode:multiply;}.cls-4,.cls-9{fill:#b34000;}.cls-10,.cls-11,.cls-5,.cls-6,.cls-7,.cls-8{fill:none;stroke:#4d4d4d;stroke-miterlimit:10;}.cls-6{stroke-dasharray:4.93 4.93;}.cls-7,.cls-8{fill-rule:evenodd;}.cls-9{font-size:28.1px;font-family:Roboto-Light, Roboto Light;font-weight:300;}.cls-10{stroke-dasharray:4.93 4.93;}.cls-11{stroke-dasharray:5;}</style></defs><g class="cls-1"><g id="OBJECTS"><path class="cls-2" d="M138.69,249.59v26.73h-6.22l-11.8-14.24v14.24h-7.41V249.59h6.22l11.8,14.25V249.59Z" transform="translate(-39.88 -78.4)"/><path class="cls-2" d="M142.67,263c0-8,6.3-13.9,14.85-13.9s14.86,5.88,14.86,13.9-6.31,13.9-14.86,13.9S142.67,271,142.67,263Zm22.07,0c0-4.62-3.17-7.64-7.22-7.64s-7.22,3-7.22,7.64,3.17,7.63,7.22,7.63S164.74,267.58,164.74,263Z" transform="translate(-39.88 -78.4)"/><path class="cls-2" d="M211.56,259.48c0,6.07-4.58,9.85-11.88,9.85H195v7h-7.57V249.59h12.22C207,249.59,211.56,253.37,211.56,259.48Zm-7.64,0c0-2.48-1.56-3.93-4.69-3.93H195v7.83h4.2C202.36,263.38,203.92,261.93,203.92,259.48Z" transform="translate(-39.88 -78.4)"/><path class="cls-2" d="M226.91,269.22h-4.12v7.1h-7.56V249.59h12.22c7.29,0,11.87,3.78,11.87,9.89a8.86,8.86,0,0,1-5.23,8.44l5.77,8.4h-8.1Zm.08-13.67h-4.2v7.83H227c3.13,0,4.7-1.45,4.7-3.9S230.12,255.55,227,255.55Z" transform="translate(-39.88 -78.4)"/><path class="cls-2" d="M242.12,263c0-8,6.3-13.9,14.85-13.9s14.85,5.88,14.85,13.9-6.3,13.9-14.85,13.9S242.12,271,242.12,263Zm22.07,0c0-4.62-3.17-7.64-7.22-7.64s-7.22,3-7.22,7.64,3.17,7.63,7.22,7.63S264.19,267.58,264.19,263Z" transform="translate(-39.88 -78.4)"/><path class="cls-2" d="M275.8,249.59h12.64c8.86,0,14.93,5.16,14.93,13.37s-6.07,13.36-14.93,13.36H275.8Zm12.33,20.7c4.55,0,7.6-2.71,7.6-7.33s-3.05-7.33-7.6-7.33h-4.77v14.66Z" transform="translate(-39.88 -78.4)"/><path class="cls-2" d="M307.12,264.41V249.59h7.56v14.59c0,4.58,1.91,6.41,5.07,6.41s5.05-1.83,5.05-6.41V249.59h7.44v14.82c0,8-4.66,12.45-12.56,12.45S307.12,272.39,307.12,264.41Z" transform="translate(-39.88 -78.4)"/><path class="cls-2" d="M336,263c0-8.14,6.22-13.9,14.7-13.9,4.93,0,8.9,1.79,11.49,5l-4.81,4.35a7.91,7.91,0,0,0-6.3-3.13c-4.39,0-7.44,3.05-7.44,7.64s3.05,7.63,7.44,7.63a7.88,7.88,0,0,0,6.3-3.13l4.81,4.36c-2.59,3.24-6.56,5-11.49,5C342.21,276.86,336,271.09,336,263Z" transform="translate(-39.88 -78.4)"/><path class="cls-2" d="M371,255.59H362.8v-6h23.94v6h-8.17v20.73H371Z" transform="translate(-39.88 -78.4)"/><g class="cls-3"><path class="cls-4" d="M133.09,282.52H137v16.74h-3.87Z" transform="translate(-39.88 -78.4)"/><path class="cls-4" d="M156.28,282.52v16.74H153.1l-8.34-10.16v10.16h-3.83V282.52h3.2l8.33,10.17V282.52Z" transform="translate(-39.88 -78.4)"/><path class="cls-4" d="M170.48,285.68h-5.35v-3.16h14.59v3.16h-5.36v13.58h-3.88Z" transform="translate(-39.88 -78.4)"/><path class="cls-4" d="M197.15,282.52v16.74h-3.88V292.4h-7.6v6.86h-3.88V282.52h3.88v6.6h7.6v-6.6Z" transform="translate(-39.88 -78.4)"/><path class="cls-4" d="M201.11,282.52H205v16.74h-3.88Z" transform="translate(-39.88 -78.4)"/><path class="cls-4" d="M207.64,297.61,209,294.7a9.81,9.81,0,0,0,5.52,1.74c2.3,0,3.23-.76,3.23-1.79,0-3.13-9.73-1-9.73-7.2,0-2.85,2.29-5.21,7.05-5.21a11.2,11.2,0,0,1,5.81,1.48l-1.19,2.94a9.52,9.52,0,0,0-4.64-1.31c-2.3,0-3.18.86-3.18,1.91,0,3.08,9.73,1,9.73,7.1,0,2.8-2.32,5.19-7.1,5.19A11.91,11.91,0,0,1,207.64,297.61Z" transform="translate(-39.88 -78.4)"/><path class="cls-4" d="M229.92,290.89c0-5,3.88-8.65,9.09-8.65a8.65,8.65,0,0,1,6.89,3l-2.49,2.3a5.38,5.38,0,0,0-4.21-2,5.36,5.36,0,0,0,0,10.71,5.33,5.33,0,0,0,4.21-2l2.49,2.29a8.59,8.59,0,0,1-6.91,3C233.8,299.55,229.92,295.94,229.92,290.89Z" transform="translate(-39.88 -78.4)"/><path class="cls-4" d="M259.19,295.68h-7.77l-1.48,3.58h-4l7.46-16.74h3.83l7.48,16.74h-4.06ZM258,292.74l-2.65-6.41-2.65,6.41Z" transform="translate(-39.88 -78.4)"/><path class="cls-4" d="M269.12,285.68h-5.36v-3.16h14.59v3.16H273v13.58h-3.87Z" transform="translate(-39.88 -78.4)"/><path class="cls-4" d="M293.39,296.16v3.1h-13V282.52h12.66v3.11h-8.8v3.64h7.77v3h-7.77v3.88Z" transform="translate(-39.88 -78.4)"/><path class="cls-4" d="M307.73,290.63h3.54v6.79a11.52,11.52,0,0,1-6.77,2.13c-5.26,0-9.13-3.61-9.13-8.66s3.87-8.65,9.21-8.65a8.9,8.9,0,0,1,7,2.89l-2.48,2.3a5.67,5.67,0,0,0-4.33-1.89,5.36,5.36,0,1,0,0,10.71,6.1,6.1,0,0,0,3-.72Z" transform="translate(-39.88 -78.4)"/><path class="cls-4" d="M313.8,290.89c0-5,3.88-8.65,9.16-8.65s9.16,3.66,9.16,8.65-3.9,8.66-9.16,8.66S313.8,295.87,313.8,290.89Zm14.4,0a5.24,5.24,0,1,0-5.24,5.36A5.1,5.1,0,0,0,328.2,290.89Z" transform="translate(-39.88 -78.4)"/><path class="cls-4" d="M345.7,299.26l-3.23-4.66h-3.56v4.66H335V282.52h7.24c4.47,0,7.27,2.32,7.27,6.08a5.43,5.43,0,0,1-3.44,5.28l3.75,5.38Zm-3.63-13.58h-3.16v5.84h3.16c2.37,0,3.56-1.1,3.56-2.92S344.44,285.68,342.07,285.68Z" transform="translate(-39.88 -78.4)"/><path class="cls-4" d="M360.41,293.33v5.93h-3.88v-6l-6.48-10.77h4.11l4.48,7.44,4.47-7.44h3.8Z" transform="translate(-39.88 -78.4)"/></g><g class="cls-3"><line class="cls-5" x1="91.66" y1="235.97" x2="94.16" y2="235.97"/><line class="cls-6" x1="99.09" y1="235.97" x2="323.6" y2="235.97"/><line class="cls-5" x1="326.07" y1="235.97" x2="328.57" y2="235.97"/></g><line class="cls-5" x1="157.65" y1="249.19" x2="262.59" y2="249.19"/><path class="cls-7" d="M379.35,333.92s51.16-54,30.74-135.12c0,0-18.43,6.06-25.74-5.49a3.26,3.26,0,0,1,2.64-5,56.82,56.82,0,0,0,6.13-.37c.19-1.31-.58-2.57-1.18-3.78a7.85,7.85,0,0,1-1.1-4,3.16,3.16,0,0,1,4.29-2.8l7.65,2.81.41-6.15a3.25,3.25,0,0,1,5.36-2.28c4.58,3.94,10,11.74,5.17,24.89" transform="translate(-39.88 -78.4)"/><path class="cls-7" d="M378.67,334.44s16.3-60.7,83.76-81.82c0,0,4.11-20.2,13.59-13.84,10.32,6.93-11.48,14.95-11.48,14.95" transform="translate(-39.88 -78.4)"/><path class="cls-8" d="M384.16,335.42s28.76-31.08,60.26-24.48C444.42,310.94,414.1,314.06,384.16,335.42Z" transform="translate(-39.88 -78.4)"/><path class="cls-8" d="M414.73,252.06s26.19-19.73,24.35-42.61S414.73,252.06,414.73,252.06Z" transform="translate(-39.88 -78.4)"/><path class="cls-8" d="M73.84,197.76l1-14.32a2.84,2.84,0,0,0-5.41-1.38l-1.62,3.52-5.1-3.69a2.84,2.84,0,0,0-4.15,3.68l3.92,7.08L58.4,194a2.84,2.84,0,0,0,.72,5.53l9.49.63c39,28.87,53.42,131.53,53.42,131.53s-8.19-22.45-56.37-19c0,0-16-7.83-17,3.72s17.67-.4,17.67-.4" transform="translate(-39.88 -78.4)"/><path class="cls-8" d="M100.21,288.78s-1.55-35.91-23.36-48.46S100.21,288.78,100.21,288.78Z" transform="translate(-39.88 -78.4)"/><path class="cls-8" d="M91.51,289.24s-12.88-11.83-24.7-8.64S91.51,289.24,91.51,289.24Z" transform="translate(-39.88 -78.4)"/><g class="cls-3"><text class="cls-9" transform="translate(99.25 58.64) rotate(-4.53)">z</text></g><g class="cls-3"><text class="cls-9" transform="translate(119.42 73.73) rotate(4.5)">z</text></g><g class="cls-3"><text class="cls-9" transform="translate(146.39 86.76) rotate(-6.48)">z</text></g><g class="cls-3"><line class="cls-5" x1="106.06" y1="149.43" x2="108.56" y2="149.43"/><line class="cls-10" x1="113.5" y1="149.43" x2="259.03" y2="149.43"/><line class="cls-5" x1="261.5" y1="149.43" x2="264" y2="149.43"/></g><path class="cls-8" d="M197.36,203.09,184.81,193a1.36,1.36,0,0,0-2.21,1.12l.94,19.47s-5.77,7.07-3.85,13.8H303.88s-17.93,62.45,5.06,67.09c0,0,11.18-.85,1.69-10.34s3.82-56.73,3.82-56.73,6.51-46.18-36.93-48.93-54,19.83-54,19.83l-9-11.76a1.35,1.35,0,0,0-2.42.63l-1.88,13.45S199.23,200.31,197.36,203.09Z" transform="translate(-39.88 -78.4)"/><path class="cls-8" d="M271.67,155.24" transform="translate(-39.88 -78.4)"/><polygon class="cls-8" points="156.29 141.18 159.47 141.18 157.21 143.35 156.29 141.18"/><path class="cls-8" d="M189.31,212.88s3.54.81,4.48,3.64" transform="translate(-39.88 -78.4)"/><path class="cls-8" d="M207.82,212.88s-3.53.81-4.48,3.64" transform="translate(-39.88 -78.4)"/><line class="cls-5" x1="172.88" y1="137.48" x2="187.58" y2="137.48"/><line class="cls-5" x1="171.37" y1="140.56" x2="181.91" y2="143.35"/><line class="cls-5" x1="170.62" y1="142.93" x2="173.61" y2="145.68"/><line class="cls-5" x1="142.58" y1="138.64" x2="127.88" y2="138.64"/><line class="cls-5" x1="144.09" y1="141.73" x2="133.54" y2="144.52"/><line class="cls-5" x1="144.84" y1="144.1" x2="141.85" y2="146.85"/><line class="cls-11" x1="276.22" y1="148.76" x2="318.74" y2="148.76"/><path class="cls-2" d="M115.63,189.08a5.1,5.1,0,1,1-5.09-5.1A5.09,5.09,0,0,1,115.63,189.08Z" transform="translate(-39.88 -78.4)"/><path class="cls-5" d="M101,116.34a5.1,5.1,0,1,1-5.1-5.09A5.1,5.1,0,0,1,101,116.34Z" transform="translate(-39.88 -78.4)"/><circle class="cls-5" cx="328.77" cy="280.82" r="3.93"/><ellipse class="cls-5" cx="338.78" cy="3.98" rx="3.29" ry="3.48"/><ellipse class="cls-5" cx="207.87" cy="24.14" rx="3.29" ry="3.48"/><path class="cls-2" d="M112.32,147.37a2.55,2.55,0,1,1-2.55-2.55A2.55,2.55,0,0,1,112.32,147.37Z" transform="translate(-39.88 -78.4)"/><path class="cls-2" d="M292.09,93.12a2.55,2.55,0,1,1-2.54-2.55A2.54,2.54,0,0,1,292.09,93.12Z" transform="translate(-39.88 -78.4)"/><path class="cls-2" d="M450.09,236.62a5.1,5.1,0,1,1-5.1-5.09A5.1,5.1,0,0,1,450.09,236.62Z" transform="translate(-39.88 -78.4)"/><path class="cls-4" d="M453.89,146.91a5.1,5.1,0,1,1-5.1-5.1A5.09,5.09,0,0,1,453.89,146.91Z" transform="translate(-39.88 -78.4)"/><path class="cls-4" d="M45.78,241.73a3.49,3.49,0,1,1,.11-4.94A3.49,3.49,0,0,1,45.78,241.73Z" transform="translate(-39.88 -78.4)"/><path class="cls-4" d="M336.38,133.21a3.49,3.49,0,1,1,.11-4.94A3.49,3.49,0,0,1,336.38,133.21Z" transform="translate(-39.88 -78.4)"/><path class="cls-2" d="M155.53,347.46a5.09,5.09,0,1,1-5.09-5.09A5.09,5.09,0,0,1,155.53,347.46Z" transform="translate(-39.88 -78.4)"/><circle class="cls-2" cx="393.85" cy="199.6" r="2.55"/></g></g></svg>