<svg xmlns="http://www.w3.org/2000/svg" width="16" height="21" viewBox="0 0 16 21">
    <g fill="none" fill-rule="evenodd">
        <path d="M0 0H24V24H0z" transform="translate(-4 -2)"/>
        <path fill="#AEB9C1" d="M4 4l7.631-1.43c.244-.047.494-.047.738 0L20 4v9.283c0 2.934-1.512 5.662-4 7.217l-3.47 2.169c-.324.202-.736.202-1.06 0L8 20.5c-2.488-1.555-4-4.283-4-7.217V4z" opacity=".3" transform="translate(-4 -2)"/>
        <path fill="#AEB9C1" d="M11.175 14.75c-.24 0-.48-.096-.67-.287l-1.917-1.917c-.384-.383-.384-.958 0-1.342.383-.383 1.006-.383 1.341 0l1.246 1.246 3.163-3.162c.383-.384.958-.384 1.341 0 .384.383.384.958 0 1.341l-3.833 3.834c-.192.191-.431.287-.671.287z" transform="translate(-4 -2)"/>
    </g>
</svg>
