<svg xmlns="http://www.w3.org/2000/svg" width="20" height="20" viewBox="0 0 20 20">
    <g fill="none" fill-rule="evenodd" transform="translate(-2 -2)">
        <path d="M0 0H24V24H0z"/>
        <rect width="20" height="20" x="2" y="2" fill="#AEB9C1" opacity=".3" rx="10"/>
        <path fill="#AEB9C1" d="M6.168 14.555c-.306-.46-.182-1.08.277-1.387.46-.306 1.08-.182 1.387.277C8.99 15.181 10.354 16 12 16c1.646 0 3.01-.82 4.168-2.555.306-.46.927-.583 1.387-.277.46.306.583.927.277 1.387C16.322 16.819 14.354 18 12 18c-2.354 0-4.322-1.18-5.832-3.445z"/>
    </g>
</svg>
