<svg xmlns="http://www.w3.org/2000/svg" width="15" height="16" viewBox="0 0 15 16">
    <g fill="#AEB9C1" fill-rule="evenodd">
        <path d="M7.575 4.568c-1.6 0-2.898 1.298-2.898 2.898s1.298 2.898 2.898 2.898 2.898-1.298 2.898-2.898c-.002-1.6-1.298-2.896-2.898-2.898zm0 4.773C6.539 9.34 5.7 8.5 5.7 7.466c0-1.036.84-1.875 1.875-1.875 1.036 0 1.875.84 1.875 1.875 0 1.035-.84 1.875-1.875 1.875z"/>
        <path stroke="#A8A8A8" stroke-width=".1" d="M14.223 6.955h-1.05c-.251-2.699-2.388-4.836-5.087-5.087V.818c0-.282-.229-.511-.511-.511-.282 0-.511.229-.511.511v1.05c-2.699.251-4.836 2.388-5.087 5.087H.587c-.283 0-.512.228-.512.51 0 .283.229.512.511.512h1.391c.25 2.701 2.39 4.84 5.09 5.09v1.391c0 .282.229.511.511.511.283 0 .512-.229.512-.511v-1.364-.027c2.698-.253 4.834-2.391 5.083-5.09h1.05c.282 0 .511-.229.511-.511 0-.283-.229-.511-.511-.511zm-6.648 5.113c-2.542 0-4.602-2.06-4.602-4.602 0-2.542 2.06-4.602 4.602-4.602 2.542 0 4.602 2.06 4.602 4.602 0 2.542-2.06 4.602-4.602 4.602z"/>
    </g>
</svg>
