<svg xmlns="http://www.w3.org/2000/svg" width="30" height="30" viewBox="0 0 30 30">
    <g fill="none" fill-rule="evenodd">
        <path d="M0 0H30V30H0z"/>
        <circle cx="15" cy="15" r="14" stroke="#FFF" stroke-width="2"/>
        <path fill="#FFF" d="M20.813 11.486c.607-.383 1.073-.99 1.291-1.714-.568.356-1.196.613-1.866.752-.534-.603-1.298-.979-2.143-.979-1.622 0-2.937 1.388-2.937 3.098 0 .243.024.48.075.706-2.44-.13-4.605-1.362-6.054-3.237-.253.459-.398.99-.398 1.558 0 1.074.519 2.023 1.307 2.58-.482-.017-.935-.157-1.331-.388v.038c0 1.502 1.012 2.754 2.357 3.038-.247.072-.506.109-.775.109-.189 0-.374-.019-.552-.055.373 1.23 1.458 2.127 2.744 2.151-1.006.832-2.273 1.326-3.648 1.326-.237 0-.472-.013-.701-.042 1.3.878 2.844 1.391 4.503 1.391 5.404 0 8.357-4.72 8.357-8.815 0-.135-.002-.268-.008-.4.574-.437 1.074-.983 1.466-1.605-.527.247-1.093.413-1.687.488z"/>
    </g>
</svg>
