<svg xmlns="http://www.w3.org/2000/svg" viewBox="0 0 13.96 12.51"><defs><style>.cls-1{fill:#df4d97;}</style></defs><g id="Layer_2" data-name="Layer 2"><g id="OBJECTS"><path class="cls-1" d="M7,12.51,4.64,10.15c-1-1-2.07-2.06-3.09-3.1A5.25,5.25,0,0,1,.15,4.87,3.82,3.82,0,0,1,3.12.1,3.78,3.78,0,0,1,6.79,1.33L7,1.5s0,0,0,0A11.23,11.23,0,0,1,8.05.6a3.71,3.71,0,0,1,4,0A3.7,3.7,0,0,1,14,4a4.25,4.25,0,0,1-1.34,2.81c-.95,1-1.92,1.94-2.89,2.91ZM7,3.05c-.25-.34-.48-.65-.72-.95A2.91,2.91,0,0,0,3.3,1,3,3,0,0,0,1,4.46a4.36,4.36,0,0,0,1.25,2l4,4c.26.26.5.53.8.85A2.35,2.35,0,0,1,7.21,11c1.06-1.07,2.14-2.13,3.2-3.21.66-.67,1.32-1.33,1.94-2a2.76,2.76,0,0,0,.7-1.64,3,3,0,0,0-1.94-3,3,3,0,0,0-3.41,1Z"/></g></g></svg>