<svg xmlns="http://www.w3.org/2000/svg" viewBox="0 0 21.37 21.58"><defs><style>.cls-1{fill:#e04e97;}.cls-2{fill:#4a69b2;}.cls-3{fill:#fff;}</style></defs><g id="Layer_2" data-name="Layer 2"><g id="Layer_1-2" data-name="Layer 1"><path class="cls-1" d="M0,21.58C.12,21,.19,20.51.32,20Q1,17.52,1.75,15a1.41,1.41,0,0,1,.32-.59Q7.64,8.82,13.22,3.25a.92.92,0,0,1,.14-.11L18.23,8l-.36.38q-5.4,5.4-10.8,10.78a2,2,0,0,1-.84.49c-1.85.6-3.71,1.16-5.57,1.73Zm5.56-4.81a3.17,3.17,0,0,0,.53-.39c1.24-1.22,2.46-2.45,3.69-3.68s2.61-2.6,3.91-3.91c.39-.4.42-.81.09-1.11s-.72-.22-1.11.17L5.15,15.37a2.12,2.12,0,0,0-.33.41A.71.71,0,0,0,5.56,16.77Zm-2.92-1.2L1.42,20.06,5.8,18.73Z"/><path class="cls-2" d="M19.28,7l-5-4.95c.6-.57,1.19-1.18,1.82-1.75A1.13,1.13,0,0,1,17.8.4c1.05,1,2.11,2.09,3.15,3.15a1.14,1.14,0,0,1,0,1.77Zm-.23-2.72L17.16,2.49l-.61.43,1.89,1.93Z"/><path class="cls-3" d="M5.56,16.77a.71.71,0,0,1-.74-1,2.12,2.12,0,0,1,.33-.41l7.52-7.52c.39-.39.81-.45,1.11-.17s.3.71-.09,1.11c-1.3,1.31-2.61,2.61-3.91,3.91s-2.45,2.46-3.69,3.68A3.17,3.17,0,0,1,5.56,16.77Z"/><path class="cls-3" d="M2.64,15.57,5.8,18.73,1.42,20.06Z"/><path class="cls-3" d="M19.05,4.31l-.61.54L16.55,2.92l.61-.43Z"/></g></g></svg>