<svg xmlns="http://www.w3.org/2000/svg" width="30" height="30" viewBox="0 0 30 30">
    <g fill="none" fill-rule="evenodd">
        <path d="M0 0H30V30H0z"/>
        <circle cx="15" cy="15" r="14" stroke="#FFF" stroke-width="2"/>
        <path fill="#FFF" d="M8.526 12.554h2.658v9.263H8.526v-9.263zm1.26-1.158h-.018c-.962 0-1.586-.708-1.586-1.605 0-.915.642-1.61 1.623-1.61.98 0 1.584.693 1.603 1.607 0 .897-.622 1.608-1.621 1.608zm12.032 10.422h-3.014v-4.794c0-1.255-.471-2.11-1.508-2.11-.793 0-1.234.577-1.439 1.135-.077.199-.065.477-.065.757v5.012h-2.986s.039-8.492 0-9.264h2.986v1.454c.177-.635 1.13-1.543 2.653-1.543 1.89 0 3.373 1.334 3.373 4.202v5.151z"/>
    </g>
</svg>
