<svg xmlns="http://www.w3.org/2000/svg" width="30" height="23" viewBox="0 0 30 23">
    <path fill="#FFF" d="M.896.339C.408.391-.003.856 0 1.354v20.293c0 .531.476 1.015 1 1.015h25.333c.524 0 1-.484 1-1.015v-3.382H29c.524 0 1-.484 1-1.015V9.133c0-.531-.476-1.015-1-1.015h-1.667V4.736c0-.531-.476-1.015-1-1.015h-1.666V1.354c0-.532-.477-1.015-1-1.015h-7c-.529-.008-1.015.479-1.015 1.015 0 .536.486 1.022 1.015 1.014h6v1.353H2V2.368h11.333c.529.008 1.015-.478 1.015-1.014S13.862.33 13.333.339c0 0-12.402-.002-12.437 0zM2 5.751h23.333v2.367h-6.395C16.21 8.118 14 10.407 14 13.191c0 2.785 2.21 5.074 4.938 5.074h6.395v2.367H2V5.751zm16.938 4.396H28v6.089h-9.063c-1.636 0-2.937-1.332-2.937-3.045 0-1.712 1.301-3.044 2.938-3.044zm.062.677c-1.277 0-2.333 1.072-2.333 2.367 0 1.296 1.056 2.368 2.333 2.368 1.277 0 2.333-1.072 2.333-2.368 0-1.295-1.056-2.367-2.333-2.367zm0 2.03c.196 0 .333.139.333.337 0 .2-.137.339-.333.339s-.333-.14-.333-.339c0-.198.137-.338.333-.338z" opacity=".99"/>
</svg>
