<svg xmlns="http://www.w3.org/2000/svg" width="296" height="231" viewBox="0 0 296 231">
    <g fill="none" fill-rule="evenodd" transform="translate(0 -44)">
        <circle cx="154.483" cy="150.211" r="105.776" fill="#0CA3CA" fill-rule="nonzero" transform="rotate(-45 154.483 150.211)"/>
        <path fill="#0788A8" fill-rule="nonzero" d="M14.787 236.844c-15.74 0-18.832 8.516-9.64 9.642 9.191 1.125 13.575.66 8.892 6.446-4.682 5.785 40.505 2.542 34.753 8.186-5.753 5.643 8.515 6.721 18.997 6.721s21.452-.7 17.69 3.519c-3.76 4.219 33.667 4.431 32.762-1.614-.905-6.045 7.704-8.902 15.841-8.658 8.138.244 95.64-5.95 91.335-.535-4.304 5.415 18.974 2.117 16.904 6.06-2.07 3.944 35.728 5.337 35.413 1.197-.314-4.14 19.926-3.936 17.077-11.507-2.848-7.572-20.68-9.445-24.167-9.87-3.486-.425 24.829-2.212 22.114-9.532-2.716-7.32-51.751-2.133-51.751-2.133l-104.154-5.423-122.066 7.5z"/>
        <path fill="#D6CAB8" fill-rule="nonzero" d="M232.823 202.849H285.71500000000003V218.182H232.823z"/>
        <path fill="#7ECCCE" fill-rule="nonzero" d="M259.272 98.85h-35.531s4.643 96.68 5.107 101.646c.465 4.966 2.55 7.87 4.407 7.87h52.026c1.858 0 3.935-2.872 4.407-7.87.473-4.998 5.116-101.645 5.116-101.645h-35.532z"/>
        <path fill="#000" fill-rule="nonzero" opacity=".07" style="mix-blend-mode:multiply" d="M271.769 218.182L285.714 218.182 285.714 207.611 271.769 208.335z"/>
        <path fill="#6DB0B3" fill-rule="nonzero" d="M223.741 92.837H294.80400000000003V98.85000000000001H223.741z"/>
        <path fill="#EEE0CB" fill-rule="nonzero" d="M283.566 210.035H234.97c-3.4 0-4.722 1.307-4.722 3.393v12.585c0 2.094 1.307 3.4 4.722 3.4h48.595c3.4 0 4.722-1.306 4.722-3.4V213.42c-.016-2.078-1.323-3.385-4.722-3.385z"/>
        <path fill="#DFD3C0" fill-rule="nonzero" d="M259.272 229.374h-24.301v5.352c0 2.362 1.047 5.51 6.665 5.51H276.9c5.62 0 6.666-3.148 6.666-5.51v-5.352h-24.294z"/>
        <path fill="#C8E6ED" fill-rule="nonzero" d="M225.425 133.617L293.112 133.617 291.309 170.185 227.282 170.185z"/>
        <rect width="1.188" height="14.978" x="231.807" y="212.255" fill="#DFD3C0" fill-rule="nonzero" rx=".594"/>
        <rect width="1.188" height="14.978" x="233.956" y="212.255" fill="#DFD3C0" fill-rule="nonzero" rx=".594"/>
        <rect width="1.188" height="14.978" x="236.104" y="212.255" fill="#DFD3C0" fill-rule="nonzero" rx=".594"/>
        <rect width="1.188" height="14.978" x="238.253" y="212.255" fill="#DFD3C0" fill-rule="nonzero" rx=".594"/>
        <rect width="1.188" height="14.978" x="240.409" y="212.255" fill="#DFD3C0" fill-rule="nonzero" rx=".594"/>
        <rect width="1.188" height="14.978" x="242.557" y="212.255" fill="#DFD3C0" fill-rule="nonzero" rx=".594"/>
        <rect width="1.188" height="14.978" x="244.706" y="212.255" fill="#DFD3C0" fill-rule="nonzero" rx=".594"/>
        <rect width="1.188" height="14.978" x="246.854" y="212.255" fill="#DFD3C0" fill-rule="nonzero" rx=".594"/>
        <rect width="1.188" height="14.978" x="249.002" y="212.255" fill="#DFD3C0" fill-rule="nonzero" rx=".594"/>
        <rect width="1.188" height="14.978" x="251.151" y="212.255" fill="#DFD3C0" fill-rule="nonzero" rx=".594"/>
        <rect width="1.188" height="14.978" x="253.299" y="212.255" fill="#DFD3C0" fill-rule="nonzero" rx=".594"/>
        <rect width="1.188" height="14.978" x="255.448" y="212.255" fill="#DFD3C0" fill-rule="nonzero" rx=".594"/>
        <rect width="1.188" height="14.978" x="257.596" y="212.255" fill="#DFD3C0" fill-rule="nonzero" rx=".594"/>
        <rect width="1.188" height="14.978" x="259.752" y="212.255" fill="#DFD3C0" fill-rule="nonzero" rx=".594"/>
        <rect width="1.188" height="14.978" x="261.901" y="212.255" fill="#DFD3C0" fill-rule="nonzero" rx=".594"/>
        <rect width="1.188" height="14.978" x="264.049" y="212.255" fill="#DFD3C0" fill-rule="nonzero" rx=".594"/>
        <rect width="1.188" height="14.978" x="266.198" y="212.255" fill="#DFD3C0" fill-rule="nonzero" rx=".594"/>
        <rect width="1.188" height="14.978" x="268.346" y="212.255" fill="#DFD3C0" fill-rule="nonzero" rx=".594"/>
        <rect width="1.188" height="14.978" x="270.494" y="212.255" fill="#DFD3C0" fill-rule="nonzero" rx=".594"/>
        <rect width="1.188" height="14.978" x="272.643" y="212.255" fill="#DFD3C0" fill-rule="nonzero" rx=".594"/>
        <rect width="1.188" height="14.978" x="274.791" y="212.255" fill="#DFD3C0" fill-rule="nonzero" rx=".594"/>
        <rect width="1.188" height="14.978" x="276.94" y="212.255" fill="#DFD3C0" fill-rule="nonzero" rx=".594"/>
        <rect width="1.188" height="14.978" x="279.096" y="212.255" fill="#DFD3C0" fill-rule="nonzero" rx=".594"/>
        <rect width="1.188" height="14.978" x="281.244" y="212.255" fill="#DFD3C0" fill-rule="nonzero" rx=".594"/>
        <rect width="1.188" height="14.978" x="283.393" y="212.255" fill="#DFD3C0" fill-rule="nonzero" rx=".594"/>
        <rect width="1.188" height="14.978" x="285.541" y="212.255" fill="#DFD3C0" fill-rule="nonzero" rx=".594"/>
        <path d="M223.741 92.837v6.014h.543V94.05c0-.235.19-.425.425-.425s.425.19.425.425v4.8h.653v-4.8c0-.235.19-.425.425-.425s.425.19.425.425v4.8h.653v-4.8c0-.113.045-.221.125-.301.08-.08.187-.124.3-.124.235 0 .425.19.425.425v4.8h.653v-4.8c-.022-.165.053-.327.192-.416.14-.09.319-.09.458 0 .14.09.215.251.192.416v4.8h.654v-4.8c0-.113.044-.221.124-.301.08-.08.188-.124.3-.124.235 0 .425.19.425.425v4.8h.654v-4.8c0-.235.19-.425.425-.425.234 0 .425.19.425.425v4.8h.653v-4.8c0-.235.19-.425.425-.425.112 0 .22.044.3.124.08.08.125.188.125.3v4.802h.653V94.05c0-.235.19-.425.425-.425.234 0 .425.19.425.425v4.8h.653v-4.8c0-.235.19-.425.425-.425s.425.19.425.425v4.8h.653v-4.8c0-.235.19-.425.425-.425s.425.19.425.425v4.8h.653v-4.8c0-.235.19-.425.425-.425s.425.19.425.425v4.8h.653v-4.8c0-.235.19-.425.425-.425s.425.19.425.425v4.8h.653v-4.8c0-.235.19-.425.425-.425s.425.19.425.425v4.8h.653v-4.8c-.022-.165.053-.327.192-.416.14-.09.319-.09.458 0 .14.09.215.251.192.416v4.8h.654v-4.8c0-.113.044-.221.124-.301.08-.08.188-.124.3-.124.235 0 .426.19.426.425v4.8h.653v-4.8c0-.235.19-.425.425-.425.234 0 .425.19.425.425v4.8h.653v-4.8c0-.152.08-.293.212-.368.132-.076.294-.076.425 0 .132.075.213.216.213.368v4.8h.653v-4.8c0-.235.19-.425.425-.425s.425.19.425.425v4.8h.653v-4.8c0-.235.19-.425.425-.425s.425.19.425.425v4.8h.653v-4.8c0-.235.19-.425.425-.425s.425.19.425.425v4.8h.653v-4.8c0-.235.19-.425.425-.425s.425.19.425.425v4.8h.653v-4.8c0-.235.19-.425.425-.425s.425.19.425.425v4.8h.653v-4.8c-.022-.165.053-.327.192-.416.14-.09.319-.09.458 0 .14.09.215.251.192.416v4.8h.654v-4.8c0-.113.044-.221.124-.301.08-.08.188-.124.3-.124.235 0 .426.19.426.425v4.8h.653v-4.8c0-.235.19-.425.425-.425.234 0 .425.19.425.425v4.8h.653v-4.8c0-.235.19-.425.425-.425.234 0 .425.19.425.425v4.8h.653v-4.8c0-.235.19-.425.425-.425s.425.19.425.425v4.8h.653v-4.8c0-.235.19-.425.425-.425s.425.19.425.425v4.8h.653v-4.8c0-.235.19-.425.425-.425s.425.19.425.425v4.8h.653v-4.8c0-.235.19-.425.425-.425s.425.19.425.425v4.8h.653v-4.8c0-.235.19-.425.425-.425.113 0 .221.044.3.124.08.08.125.188.125.3v4.802h.653V94.05c0-.113.045-.221.125-.301.08-.08.188-.124.3-.124.235 0 .425.19.425.425v4.8h.653v-4.8c-.022-.165.053-.327.193-.416.14-.09.318-.09.457 0 .14.09.215.251.193.416v4.8h.66v-4.8c0-.113.045-.221.125-.301.08-.08.188-.124.3-.124.235 0 .425.19.425.425v4.8h.654v-4.8c0-.235.19-.425.425-.425.234 0 .425.19.425.425v4.8h.653v-4.8c0-.235.19-.425.425-.425.234 0 .425.19.425.425v4.8h.653v-4.8c0-.235.19-.425.425-.425s.425.19.425.425v4.8h.653v-4.8c0-.235.19-.425.425-.425s.425.19.425.425v4.8h.653v-4.8c0-.235.19-.425.425-.425s.425.19.425.425v4.8h.653v-4.8c0-.113.045-.221.125-.301.08-.08.187-.124.3-.124.235 0 .425.19.425.425v4.8h.653v-4.8c0-.235.19-.425.425-.425s.425.19.425.425v4.8h.653v-4.8c-.022-.165.053-.327.192-.416.14-.09.319-.09.458 0 .14.09.215.251.192.416v4.8h.654v-4.8c0-.235.19-.425.425-.425.234 0 .424.19.424.425v4.8h.654v-4.8c0-.113.044-.221.124-.301.08-.08.188-.124.3-.124.235 0 .426.19.426.425v4.8h.653v-4.8c0-.235.19-.425.425-.425.112 0 .22.044.3.124.08.08.125.188.125.3v4.802h.653V94.05c0-.235.19-.425.425-.425s.425.19.425.425v4.8h.653v-4.8c0-.235.19-.425.425-.425s.425.19.425.425v4.8h.55v-6.013h-71.054z"/>
        <path fill="#5D999B" fill-rule="nonzero" d="M224.725 93.625c-.235 0-.425.19-.425.425v4.8h.85v-4.8c0-.235-.19-.425-.425-.425zM226.228 93.625c-.235 0-.425.19-.425.425v4.8h.842v-4.8c0-.232-.186-.421-.417-.425zM227.73 93.625c-.234 0-.424.19-.424.425v4.8h.85v-4.8c0-.235-.19-.425-.425-.425zM229.234 93.625c-.235 0-.425.19-.425.425v4.8h.842v-4.8c0-.232-.185-.421-.417-.425zM230.73 93.625c-.235 0-.426.19-.426.425v4.8h.85v-4.8c0-.235-.19-.425-.425-.425zM232.232 93.625c-.234 0-.425.19-.425.425v4.8h.85v-4.8c0-.235-.19-.425-.425-.425zM233.728 93.625c-.235 0-.425.19-.425.425v4.8h.85v-4.8c0-.235-.19-.425-.425-.425zM235.238 93.625c-.112 0-.22.044-.3.124-.08.08-.124.188-.124.3v4.802h.85V94.05c0-.235-.19-.425-.426-.425zM236.742 93.625c-.235 0-.425.19-.425.425v4.8h.85v-4.8c0-.235-.19-.425-.425-.425zM238.245 93.625c-.235 0-.425.19-.425.425v4.8h.85v-4.8c0-.235-.19-.425-.425-.425zM239.748 93.625c-.235 0-.425.19-.425.425v4.8h.85v-4.8c0-.235-.19-.425-.425-.425zM241.25 93.625c-.234 0-.424.19-.424.425v4.8h.85v-4.8c0-.235-.19-.425-.425-.425zM242.754 93.625c-.113 0-.22.044-.3.124-.08.08-.125.188-.125.3v4.802h.842V94.05c0-.232-.185-.421-.417-.425zM244.25 93.625c-.232.004-.418.193-.418.425v4.8h.842v-4.8c0-.235-.19-.425-.425-.425zM245.752 93.625c-.234 0-.425.19-.425.425v4.8h.85v-4.8c0-.235-.19-.425-.425-.425zM247.255 93.625c-.234 0-.425.19-.425.425v4.8h.85v-4.8c0-.235-.19-.425-.425-.425zM248.758 93.625c-.234 0-.424.19-.424.425v4.8h.85v-4.8c0-.235-.19-.425-.426-.425zM250.254 93.625c-.235 0-.425.19-.425.425v4.8h.85v-4.8c0-.235-.19-.425-.425-.425zM251.765 93.625c-.113 0-.221.044-.3.124-.08.08-.125.188-.125.3v4.802h.85V94.05c0-.235-.19-.425-.425-.425zM253.268 93.625c-.113 0-.221.044-.3.124-.08.08-.125.188-.125.3v4.802h.85V94.05c0-.235-.19-.425-.425-.425zM254.77 93.625c-.234 0-.424.19-.424.425v4.8h.85v-4.8c0-.235-.19-.425-.425-.425zM256.274 93.625c-.235 0-.425.19-.425.425v4.8h.85v-4.8c0-.235-.19-.425-.425-.425zM257.777 93.625c-.235 0-.425.19-.425.425v4.8h.842v-4.8c0-.232-.185-.421-.417-.425zM259.272 93.625c-.234 0-.425.19-.425.425v4.8h.85v-4.8c0-.113-.045-.221-.124-.301-.08-.08-.188-.124-.3-.124zM260.775 93.625c-.234 0-.425.19-.425.425v4.8h.85v-4.8c0-.235-.19-.425-.425-.425zM262.278 93.625c-.112 0-.22.044-.3.124-.08.08-.124.188-.124.3v4.802h.85V94.05c0-.235-.19-.425-.426-.425zM263.782 93.625c-.235 0-.425.19-.425.425v4.8h.85v-4.8c0-.235-.19-.425-.425-.425zM265.285 93.625c-.235 0-.425.19-.425.425v4.8h.85v-4.8c0-.235-.19-.425-.425-.425zM266.78 93.625c-.235 0-.425.19-.425.425v4.8h.85v-4.8c0-.235-.19-.425-.425-.425zM268.29 93.625c-.234 0-.424.19-.424.425v4.8h.85v-4.8c0-.235-.19-.425-.425-.425zM269.794 93.625c-.113 0-.22.044-.3.124-.08.08-.125.188-.125.3v4.802h.85V94.05c0-.235-.19-.425-.425-.425zM271.297 93.625c-.235 0-.425.19-.425.425v4.8h.85v-4.8c0-.235-.19-.425-.425-.425zM272.792 93.625c-.231.004-.417.193-.417.425v4.8h.842v-4.8c0-.235-.19-.425-.425-.425zM274.295 93.625c-.112 0-.22.044-.3.124-.08.08-.125.188-.125.3v4.802h.85V94.05c0-.235-.19-.425-.425-.425zM275.798 93.625c-.234 0-.424.19-.424.425v4.8h.85v-4.8c0-.235-.19-.425-.426-.425zM277.302 93.625c-.235 0-.425.19-.425.425v4.8h.85v-4.8c0-.235-.19-.425-.425-.425zM278.805 93.625c-.235 0-.425.19-.425.425v4.8h.85v-4.8c0-.235-.19-.425-.425-.425zM280.308 93.625c-.235 0-.425.19-.425.425v4.8h.85v-4.8c0-.235-.19-.425-.425-.425zM281.81 93.625c-.112 0-.22.044-.3.124-.08.08-.124.188-.124.3v4.802h.85V94.05c0-.235-.19-.425-.425-.425zM283.306 93.625c-.113 0-.22.044-.3.124-.08.08-.125.188-.125.3v4.802h.85V94.05c0-.235-.19-.425-.425-.425zM284.817 93.625c-.235 0-.425.19-.425.425v4.8h.85v-4.8c0-.235-.19-.425-.425-.425zM286.32 93.625c-.235 0-.425.19-.425.425v4.8h.842v-4.8c0-.232-.185-.421-.417-.425zM287.815 93.625c-.234 0-.425.19-.425.425v4.8h.85v-4.8c0-.235-.19-.425-.425-.425zM289.318 93.625c-.234 0-.424.19-.424.425v4.8h.85v-4.8c0-.235-.19-.425-.426-.425zM290.822 93.625c-.113 0-.221.044-.3.124-.08.08-.125.188-.125.3v4.802h.85V94.05c0-.235-.19-.425-.425-.425zM292.325 93.625c-.113 0-.221.044-.3.124-.08.08-.125.188-.125.3v4.802h.85V94.05c0-.235-.19-.425-.425-.425zM293.828 93.625c-.235 0-.425.19-.425.425v4.8h.85v-4.8c0-.235-.19-.425-.425-.425z"/>
        <path fill="#008E84" fill-rule="nonzero" d="M271.722 208.076s0-.213.047.26h13.512c1.858 0 3.935-2.874 4.407-7.872.473-4.998 5.116-101.645 5.116-101.645h-13.418s-2.943 84.14-4.084 94.593c-1.142 10.453-5.58 14.664-5.58 14.664z" opacity=".18" style="mix-blend-mode:multiply"/>
        <path fill="#000" fill-rule="nonzero" d="M271.092 229.374h12.474c3.4 0 4.722-1.306 4.722-3.4V213.42c0-2.086-1.307-3.392-4.722-3.392h-11.844c1.222.406 2.063 1.53 2.11 2.817v13.168c.03 2.251-2.74 3.361-2.74 3.361z" opacity=".07" style="mix-blend-mode:multiply"/>
        <path fill="#000" fill-rule="nonzero" d="M269.999 240.181h6.901c5.62 0 6.666-3.148 6.666-5.51v-5.352H271.76v6.4c.008 2.636-1.101 3.95-1.762 4.462z" opacity=".07" style="mix-blend-mode:multiply"/>
        <path fill="#FFF" fill-rule="nonzero" d="M227.306 98.85s5.202 94.594 5.69 101.213c.488 6.62 4.17 8.272 4.17 8.272h10.514s-2.211-2.526-2.974-8.445c-.764-5.92-3.896-101.04-3.896-101.04h-13.504zM241 229.374v5.423c0 2.983 2.746 5.416 2.746 5.416h7.082c-1.66-.826-2.727-2.5-2.778-4.353v-6.486H241z" opacity=".23"/>
        <path fill="#C1C3C3" fill-rule="nonzero" d="M211.142 84.848h-68.899c-4.643 0-7.547 3.039-7.547 8.399v131.98c0 5.367 2.904 8.405 7.547 8.405h68.899c4.65 0 7.555-3.038 7.555-8.406V93.246c0-5.36-2.904-8.398-7.555-8.398z"/>
        <path fill="#D8D9D9" fill-rule="nonzero" d="M211.142 83.447h-68.899c-4.643 0-7.547 3.039-7.547 8.407v131.963c0 5.368 2.904 8.407 7.547 8.407h68.899c4.65 0 7.555-3.039 7.555-8.407V91.854c0-5.368-2.904-8.407-7.555-8.407z"/>
        <path fill="#C1C3C3" fill-rule="nonzero" d="M175.917 83.447H177.467V232.215H175.917z"/>
        <path fill="#ADAEB5" fill-rule="nonzero" d="M165.537 99.732c-.032-.143-.071-.285-.118-.425l-.094-.244c-.023-.075-.052-.149-.087-.22 0-.047-.047-.094-.07-.15-.024-.055-.095-.196-.15-.29-.024-.03-.045-.062-.063-.095-.065-.109-.136-.214-.213-.315-.35-.47-.788-.865-1.29-1.165-1.409-.851-3.202-.719-4.47.33l-5.273 3.708-5.264 3.746c-1.412.848-2.13 2.498-1.787 4.109.117.564.344 1.099.669 1.574.178.265.384.51.614.732l.323.276c.014.017.033.03.055.039.128.099.262.19.401.275.249.148.513.27.787.363l.15.047c.144.043.291.077.44.102h.276c1.01.058 2.009-.253 2.809-.874l5.265-3.746 5.257-3.739c1.397-.828 2.13-2.44 1.833-4.038z"/>
        <path fill="red" fill-rule="nonzero" d="M148.445 103.227c-1.412.848-2.13 2.498-1.787 4.109.244 1.233 1.003 2.304 2.086 2.943 1.41.853 3.207.72 4.477-.33l5.265-3.739-2.36-3.36-2.362-3.362-5.32 3.74z"/>
        <path fill="#E6E6E6" fill-rule="nonzero" d="M163.743 102.44c1.411-.848 2.129-2.498 1.786-4.109-.241-1.234-1-2.306-2.085-2.943-1.409-.852-3.202-.719-4.47.33l-5.265 3.747 2.361 3.36 2.361 3.362 5.312-3.747z"/>
        <path fill="#D21B1F" fill-rule="nonzero" d="M147.327 108.918c.365.55.849 1.01 1.417 1.346 1.41.852 3.207.72 4.477-.33l5.265-3.74-.787-1.07c-7.995 5.699-9.412 4.825-10.372 3.794z"/>
        <path fill="#CCC" fill-rule="nonzero" d="M164.727 96.545c.39.533.658 1.146.787 1.794.34 1.61-.377 3.26-1.787 4.109l-5.264 3.739-.787-1.07c8.066-5.7 7.712-7.32 7.05-8.572z"/>
        <path fill="#FFF" fill-rule="nonzero" d="M158.809 96.584l-4.722 3.377.543.787 4.722-3.377c.101-.07.17-.178.191-.3.021-.12-.008-.246-.081-.345-.066-.108-.173-.183-.297-.21-.123-.027-.251-.002-.356.068z"/>
        <path fill="#F37248" fill-rule="nonzero" d="M149.208 103.408c-.102.071-.171.18-.192.304-.02.122.009.249.082.35.15.204.435.252.645.11l4.856-3.456-.543-.787-4.848 3.48z"/>
        <path fill="#ADAEB5" fill-rule="nonzero" d="M165.537 117.835c-.032-.146-.071-.29-.118-.432l-.094-.244c-.022-.076-.051-.15-.087-.22 0-.048-.047-.095-.07-.15-.024-.055-.095-.197-.15-.292-.024-.03-.045-.06-.063-.094-.064-.11-.135-.215-.213-.315-.35-.467-.788-.86-1.29-1.157-1.409-.851-3.202-.719-4.47.33l-5.273 3.708-5.264 3.739c-1.413.85-2.13 2.503-1.787 4.116.116.564.343 1.1.669 1.574.176.27.382.517.614.74.102.1.21.196.323.283.014.018.033.031.055.04.128.099.262.19.401.275.249.148.513.27.787.362l.15.048c.144.043.291.077.44.102h.276c1.012.058 2.011-.255 2.809-.882l5.265-3.738 5.257-3.739c1.403-.83 2.137-2.45 1.833-4.054z"/>
        <path fill="red" fill-rule="nonzero" d="M148.445 121.33c-1.411.852-2.128 2.504-1.787 4.117.244 1.233 1.003 2.304 2.086 2.943 1.412.853 3.21.717 4.477-.338l5.265-3.739-2.36-3.36-2.362-3.362-5.32 3.74z"/>
        <path fill="#E6E6E6" fill-rule="nonzero" d="M163.743 120.543c1.411-.848 2.129-2.498 1.786-4.109-.241-1.234-1-2.306-2.085-2.943-1.409-.851-3.202-.719-4.47.33l-5.265 3.739 2.361 3.36 2.361 3.362 5.312-3.739z"/>
        <path fill="#D21B1F" fill-rule="nonzero" d="M147.327 127.013c.362.554.847 1.017 1.417 1.354 1.412.853 3.21.717 4.477-.339l5.265-3.738-.787-1.07c-7.995 5.706-9.412 4.824-10.372 3.793z"/>
        <path fill="#CCC" fill-rule="nonzero" d="M164.727 114.648c.39.53.658 1.14.787 1.786.34 1.613-.376 3.265-1.787 4.117l-5.264 3.739-.787-1.07c8.066-5.7 7.712-7.32 7.05-8.572z"/>
        <path fill="#FFF" fill-rule="nonzero" d="M158.809 114.68l-4.722 3.384.543.787 4.722-3.377c.102-.071.171-.18.192-.303.02-.123-.009-.25-.082-.35-.144-.216-.433-.279-.653-.142z"/>
        <path fill="#F37248" fill-rule="nonzero" d="M149.208 121.511c-.217.148-.274.444-.126.661.148.218.444.274.661.126l4.856-3.447-.543-.787-4.848 3.447z"/>
        <path fill="#ADAEB5" fill-rule="nonzero" d="M165.537 135.939c-.03-.147-.07-.291-.118-.433l-.094-.244c-.044-.127-.097-.25-.158-.37-.047-.103-.094-.197-.15-.291-.023-.03-.044-.062-.062-.095-.064-.11-.135-.215-.213-.315-.347-.469-.786-.862-1.29-1.157-1.408-.856-3.204-.723-4.47.33l-5.273 3.708-5.264 3.739c-1.413.85-2.13 2.503-1.787 4.116.116.564.343 1.1.669 1.574.178.268.384.516.614.74.102.103.212.19.323.284l.055.039c.126.094.267.189.401.275.252.142.515.263.787.362l.15.048c.144.043.291.077.44.102h.276c1.012.054 2.01-.259 2.809-.881l5.265-3.74 5.257-3.738c1.402-.832 2.134-2.451 1.833-4.053z"/>
        <path fill="red" fill-rule="nonzero" d="M148.445 139.433c-1.413.85-2.13 2.504-1.787 4.117.247 1.232 1.005 2.302 2.086 2.944 1.412.852 3.21.716 4.477-.339l5.265-3.739-2.36-3.36-2.362-3.361-5.32 3.738z"/>
        <path fill="#E6E6E6" fill-rule="nonzero" d="M163.743 138.646c1.413-.85 2.13-2.503 1.786-4.116-.241-1.233-1-2.302-2.085-2.936-1.408-.856-3.204-.723-4.47.33l-5.265 3.74 2.361 3.36 2.361 3.36 5.312-3.738z"/>
        <path fill="#D21B1F" fill-rule="nonzero" d="M147.327 145.116c.362.554.847 1.017 1.417 1.354 1.412.853 3.21.717 4.477-.339l5.265-3.738-.787-1.07c-7.995 5.698-9.412 4.824-10.372 3.793z"/>
        <path fill="#CCC" fill-rule="nonzero" d="M164.727 132.75c.39.532.658 1.142.787 1.788.338 1.612-.378 3.262-1.787 4.116l-5.264 3.739-.787-1.07c8.066-5.7 7.712-7.329 7.05-8.572z"/>
        <path fill="#FFF" fill-rule="nonzero" d="M158.809 132.782l-4.722 3.377.543.787 4.722-3.377c.102-.07.171-.18.192-.303.02-.123-.009-.249-.082-.35-.144-.217-.436-.277-.653-.134z"/>
        <path fill="#F37248" fill-rule="nonzero" d="M149.208 139.614c-.14.096-.22.26-.207.429.012.17.114.32.267.393.154.074.334.061.475-.035l4.856-3.447-.543-.787-4.848 3.447z"/>
        <path fill="#ADAEB5" fill-rule="nonzero" d="M165.537 154.042c-.03-.147-.07-.291-.118-.433l-.094-.236c-.022-.076-.051-.15-.087-.22-.019-.053-.042-.103-.07-.15-.048-.103-.095-.197-.15-.291-.024-.03-.045-.062-.063-.095-.064-.11-.135-.215-.213-.315-.35-.469-.788-.865-1.29-1.165-1.41-.854-3.205-.718-4.47.339l-5.273 3.7-5.264 3.738c-1.413.85-2.13 2.503-1.787 4.116.116.564.343 1.1.669 1.574.178.268.384.516.614.74.102.099.21.19.323.276l.055.047c.128.096.262.186.401.268.25.147.514.27.787.37l.15.047.44.102h.276c1.012.054 2.01-.259 2.809-.881l5.265-3.74 5.257-3.738c1.402-.832 2.134-2.451 1.833-4.053z"/>
        <path fill="red" fill-rule="nonzero" d="M148.445 157.536c-1.413.85-2.13 2.504-1.787 4.117.247 1.232 1.005 2.302 2.086 2.944 1.412.852 3.21.717 4.477-.339l5.265-3.739-2.36-3.36-2.362-3.361-5.32 3.738z"/>
        <path fill="#E6E6E6" fill-rule="nonzero" d="M163.743 156.75c1.413-.851 2.13-2.504 1.786-4.117-.243-1.234-1.002-2.305-2.085-2.944-1.41-.854-3.205-.718-4.47.339l-5.265 3.738 2.361 3.361 2.361 3.361 5.312-3.739z"/>
        <path fill="#D21B1F" fill-rule="nonzero" d="M147.327 163.22c.364.551.849 1.014 1.417 1.353 1.412.853 3.21.717 4.477-.338l5.265-3.74-.787-1.07c-7.995 5.699-9.412 4.825-10.372 3.794z"/>
        <path fill="#CCC" fill-rule="nonzero" d="M164.727 150.854c.39.53.658 1.14.787 1.787.338 1.612-.378 3.262-1.787 4.116l-5.264 3.739-.787-1.07c8.066-5.7 7.712-7.328 7.05-8.572z"/>
        <path fill="#FFF" fill-rule="nonzero" d="M158.809 150.885l-4.722 3.377.543.787 4.722-3.376c.102-.072.171-.181.192-.304.02-.123-.009-.249-.082-.35-.144-.217-.436-.277-.653-.134z"/>
        <path fill="#F37248" fill-rule="nonzero" d="M149.208 157.71c-.102.07-.171.18-.192.303-.02.123.009.249.082.35.07.101.178.17.3.191.12.021.245-.008.345-.081l4.856-3.447-.543-.788-4.848 3.472z"/>
        <path fill="#ADAEB5" fill-rule="nonzero" d="M165.537 172.145c-.03-.147-.07-.291-.118-.433l-.094-.236c-.02-.077-.05-.15-.087-.22-.019-.053-.042-.103-.07-.15l-.15-.3c-.024-.029-.045-.06-.063-.094-.065-.106-.136-.208-.213-.307-.35-.469-.788-.865-1.29-1.165-1.41-.853-3.205-.717-4.47.339l-5.273 3.7-5.264 3.738c-1.413.85-2.13 2.504-1.787 4.116.117.564.345 1.1.669 1.575.176.266.382.512.614.732l.323.275.055.047c.128.097.262.186.401.268.25.147.514.271.787.37l.15.047c.144.04.291.072.44.095h.276c1.012.053 2.01-.26 2.809-.882l5.265-3.739 5.257-3.738c1.399-.827 2.132-2.44 1.833-4.038z"/>
        <path fill="red" fill-rule="nonzero" d="M148.445 175.64c-1.413.85-2.13 2.503-1.787 4.116.245 1.231 1.003 2.3 2.086 2.936 1.41.855 3.208.722 4.477-.33l5.265-3.74-2.36-3.36-2.362-3.361-5.32 3.739z"/>
        <path fill="#E6E6E6" fill-rule="nonzero" d="M163.743 174.852c1.413-.85 2.13-2.503 1.786-4.116-.243-1.234-1.002-2.305-2.085-2.944-1.41-.854-3.205-.718-4.47.339l-5.265 3.738 2.361 3.361 2.361 3.361 5.312-3.739z"/>
        <path fill="#D21B1F" fill-rule="nonzero" d="M147.327 181.322c.362.552.847 1.013 1.417 1.346 1.41.855 3.208.723 4.477-.33l5.265-3.739-.787-1.07c-7.995 5.698-9.412 4.824-10.372 3.793z"/>
        <path fill="#CCC" fill-rule="nonzero" d="M164.727 168.957c.39.53.66 1.14.787 1.787.338 1.612-.378 3.263-1.787 4.116l-5.264 3.739-.787-1.07c8.066-5.699 7.712-7.328 7.05-8.572z"/>
        <path fill="#FFF" fill-rule="nonzero" d="M158.809 168.989l-4.722 3.376.543.787 4.722-3.376c.14-.097.219-.262.205-.432-.014-.17-.117-.32-.272-.394-.154-.073-.336-.058-.476.039z"/>
        <path fill="#F37248" fill-rule="nonzero" d="M149.208 175.813c-.217.147-.274.443-.126.66.148.218.444.275.661.127l4.856-3.448-.543-.787-4.848 3.448z"/>
        <path fill="#ADAEB5" fill-rule="nonzero" d="M165.537 190.248c-.03-.147-.07-.291-.118-.433l-.094-.236c-.022-.079-.051-.155-.087-.228-.02-.05-.044-.096-.07-.142-.048-.102-.095-.205-.15-.3-.024-.029-.045-.06-.063-.094-.065-.108-.136-.213-.213-.314-.35-.47-.788-.865-1.29-1.165-1.409-.852-3.202-.719-4.47.33l-5.273 3.715-5.264 3.739c-1.412.848-2.13 2.498-1.787 4.109.117.564.344 1.099.669 1.574.176.266.382.512.614.732l.323.275.055.048c.128.096.262.185.401.267.249.148.513.27.787.362l.15.047c.143.047.29.082.44.103h.276c1.01.057 2.009-.253 2.809-.874l5.265-3.739 5.257-3.746c1.396-.825 2.128-2.435 1.833-4.03z"/>
        <path fill="red" fill-rule="nonzero" d="M148.445 193.743c-1.412.847-2.13 2.498-1.787 4.108.244 1.234 1.003 2.304 2.086 2.944 1.41.853 3.207.72 4.477-.33l5.265-3.74-2.36-3.36-2.362-3.361-5.32 3.739z"/>
        <path fill="#E6E6E6" fill-rule="nonzero" d="M163.743 192.956c1.41-.853 2.128-2.504 1.786-4.117-.241-1.235-1-2.306-2.085-2.944-1.41-.854-3.205-.718-4.47.339l-5.265 3.738 2.361 3.361 2.361 3.361 5.312-3.738z"/>
        <path fill="#D21B1F" fill-rule="nonzero" d="M147.327 199.425c.365.55.849 1.01 1.417 1.346 1.41.853 3.207.72 4.477-.33l5.265-3.739-.787-1.07c-7.995 5.698-9.412 4.825-10.372 3.793z"/>
        <path fill="#CCC" fill-rule="nonzero" d="M164.727 187.06c.39.53.66 1.14.787 1.787.34 1.61-.377 3.26-1.787 4.109l-5.264 3.746-.787-1.07c8.066-5.707 7.712-7.328 7.05-8.572z"/>
        <path fill="#FFF" fill-rule="nonzero" d="M158.809 187.092l-4.722 3.376.543.787 4.722-3.384c.101-.07.17-.178.191-.3.021-.121-.008-.246-.081-.345-.068-.106-.175-.18-.298-.206-.123-.025-.251 0-.355.072z"/>
        <path fill="#F37248" fill-rule="nonzero" d="M149.208 193.916c-.217.148-.274.444-.126.66.148.218.444.275.661.127l4.856-3.448-.543-.787-4.848 3.448z"/>
        <path fill="#ADAEB5" fill-rule="nonzero" d="M165.537 208.343c-.032-.143-.071-.285-.118-.425l-.094-.244c-.022-.076-.051-.15-.087-.22 0-.047-.047-.095-.07-.15-.024-.055-.095-.197-.15-.291-.024-.03-.045-.061-.063-.094-.064-.11-.135-.215-.213-.315-.347-.471-.786-.868-1.29-1.165-1.409-.851-3.202-.719-4.47.33l-5.273 3.715-5.264 3.74c-1.411.851-2.128 2.503-1.787 4.116.114.564.342 1.1.669 1.574.178.265.384.51.614.732l.323.275c.014.018.033.031.055.04.128.099.262.19.401.275.249.148.513.27.787.362l.15.047c.144.044.291.078.44.103h.276c1.01.057 2.009-.253 2.809-.874l5.265-3.746 5.257-3.74c1.4-.828 2.133-2.445 1.833-4.045z"/>
        <path fill="red" fill-rule="nonzero" d="M148.445 211.846c-1.412.847-2.13 2.498-1.787 4.108.244 1.234 1.003 2.305 2.086 2.944 1.41.853 3.207.72 4.477-.33l5.265-3.747-2.36-3.36-2.362-3.362-5.32 3.747z"/>
        <path fill="#E6E6E6" fill-rule="nonzero" d="M163.743 211.059c1.411-.848 2.129-2.498 1.786-4.109-.241-1.235-1-2.306-2.085-2.944-1.409-.851-3.202-.718-4.47.33l-5.265 3.74 2.361 3.36 2.361 3.361 5.312-3.738z"/>
        <path fill="#D21B1F" fill-rule="nonzero" d="M147.327 217.529c.365.55.849 1.01 1.417 1.345 1.41.853 3.207.72 4.477-.33l5.265-3.747-.787-1.062c-7.995 5.698-9.412 4.825-10.372 3.794z"/>
        <path fill="#CCC" fill-rule="nonzero" d="M164.727 205.155c.39.534.658 1.147.787 1.795.34 1.61-.377 3.26-1.787 4.109l-5.264 3.738-.787-1.07c8.066-5.699 7.712-7.32 7.05-8.572z"/>
        <path fill="#FFF" fill-rule="nonzero" d="M158.809 205.195l-4.722 3.376.543.788 4.722-3.377c.101-.07.17-.178.191-.3.021-.121-.008-.246-.081-.346-.066-.107-.173-.182-.297-.21-.123-.026-.251-.001-.356.069z"/>
        <path fill="#F37248" fill-rule="nonzero" d="M149.208 212.019c-.217.148-.274.444-.126.661.148.217.444.274.661.126l4.856-3.447-.543-.788-4.848 3.448z"/>
        <path fill="#ADAEB5" fill-rule="nonzero" d="M206.97 99.732c0-.141-.07-.283-.11-.425 0-.078-.062-.157-.086-.244-.024-.086-.055-.141-.086-.22-.032-.079-.056-.094-.08-.15-.023-.055-.094-.196-.149-.29l-.063-.095-.204-.315c-.348-.471-.787-.867-1.29-1.165-1.41-.851-3.203-.719-4.47.33l-5.266 3.708-5.264 3.746c-1.428.843-2.16 2.502-1.818 4.125.12.562.347 1.097.669 1.574.18.263.386.508.614.732l.322.275.055.04c.132.099.268.19.41.275.247.15.511.271.786.362l.15.048c.145.042.292.076.44.102h.284c1.009.057 2.004-.253 2.802-.874l5.264-3.746 5.265-3.74c1.4-.831 2.13-2.452 1.826-4.053z"/>
        <path fill="red" fill-rule="nonzero" d="M189.902 103.227c-1.415.838-2.145 2.48-1.818 4.093.248 1.234 1.009 2.304 2.093 2.944 1.409.85 3.202.718 4.47-.33l5.265-3.74-2.361-3.36-2.361-3.361-5.288 3.754z"/>
        <path fill="#E6E6E6" fill-rule="nonzero" d="M205.208 102.44c1.41-.85 2.126-2.498 1.786-4.109-.248-1.234-1.009-2.304-2.093-2.943-1.409-.852-3.202-.719-4.47.33l-5.265 3.755 2.361 3.36 2.361 3.361 5.32-3.754z"/>
        <path fill="#D21B1F" fill-rule="nonzero" d="M188.784 108.918c.368.55.855 1.01 1.425 1.346 1.408.85 3.201.718 4.47-.33l5.264-3.74-.787-1.07c-7.995 5.699-9.412 4.825-10.372 3.794z"/>
        <path fill="#CCC" fill-rule="nonzero" d="M206.184 96.545c.39.533.659 1.146.787 1.794.34 1.61-.377 3.26-1.787 4.109l-5.264 3.739-.787-1.07c8.074-5.7 7.712-7.32 7.05-8.572z"/>
        <path fill="#FFF" fill-rule="nonzero" d="M200.274 96.584l-4.722 3.377.535.787 4.722-3.377c.217-.148.274-.444.126-.661-.148-.217-.444-.274-.661-.126z"/>
        <path fill="#F37248" fill-rule="nonzero" d="M190.665 103.408c-.102.071-.171.18-.192.304-.02.122.009.249.082.35.153.205.44.253.653.11l4.848-3.456-.535-.787-4.856 3.48z"/>
        <path fill="#ADAEB5" fill-rule="nonzero" d="M206.97 117.835c0-.141-.07-.29-.11-.432 0-.087-.062-.166-.086-.244-.024-.08-.055-.15-.086-.22-.032-.072-.056-.095-.08-.15-.023-.055-.094-.197-.149-.292l-.063-.094c-.063-.11-.133-.213-.204-.315-.071-.102 0 0 0 0-.348-.468-.787-.862-1.29-1.157-1.41-.851-3.203-.719-4.47.33l-5.266 3.708-5.264 3.739c-1.428.846-2.158 2.507-1.818 4.132.119.563.346 1.098.669 1.574.178.267.384.515.614.74.101.1.21.195.322.283l.055.04c.132.099.268.19.41.275.247.15.511.271.786.362l.15.047c.145.043.292.077.44.103h.284c1.01.057 2.006-.256 2.802-.882l5.264-3.739 5.265-3.738c1.407-.835 2.138-2.464 1.826-4.07z"/>
        <path fill="red" fill-rule="nonzero" d="M189.902 121.33c-1.412.842-2.14 2.481-1.818 4.093.248 1.234 1.009 2.304 2.093 2.944 1.41.854 3.205.718 4.47-.339l5.265-3.738-2.361-3.361-2.361-3.361-5.288 3.762z"/>
        <path fill="#E6E6E6" fill-rule="nonzero" d="M205.208 120.543c1.41-.85 2.126-2.498 1.786-4.109-.248-1.234-1.009-2.304-2.093-2.943-1.409-.851-3.202-.719-4.47.33l-5.265 3.747 2.361 3.36 2.361 3.362 5.32-3.747z"/>
        <path fill="#D21B1F" fill-rule="nonzero" d="M188.784 127.013c.365.554.853 1.017 1.425 1.354 1.409.854 3.205.718 4.47-.339l5.264-3.738-.787-1.07c-7.995 5.706-9.412 4.824-10.372 3.793z"/>
        <path fill="#CCC" fill-rule="nonzero" d="M206.184 114.648c.39.53.659 1.14.787 1.786.341 1.613-.376 3.265-1.787 4.117l-5.264 3.739-.787-1.07c8.074-5.7 7.712-7.32 7.05-8.572z"/>
        <path fill="#FFF" fill-rule="nonzero" d="M200.274 114.68l-4.722 3.384.535.787 4.722-3.377c.102-.071.171-.18.192-.303.02-.123-.009-.25-.082-.35-.14-.215-.427-.278-.645-.142z"/>
        <path fill="#F37248" fill-rule="nonzero" d="M190.665 121.511c-.102.07-.17.178-.191.3-.021.121.008.246.08.346.072.102.181.171.304.192.123.02.25-.01.35-.082l4.848-3.448-.535-.787-4.856 3.48z"/>
        <path fill="#ADAEB5" fill-rule="nonzero" d="M206.97 135.939c0-.15-.07-.292-.11-.433 0-.087-.062-.166-.086-.244-.024-.079-.055-.15-.086-.22l-.08-.15c-.046-.103-.094-.197-.149-.291l-.063-.095c-.063-.11-.133-.212-.204-.315-.071-.102 0 0 0 0-.346-.47-.785-.864-1.29-1.157-1.408-.856-3.204-.723-4.47.33l-5.266 3.708-5.264 3.739c-1.428.847-2.158 2.507-1.818 4.132.119.563.346 1.098.669 1.574.18.266.386.514.614.74.102.102.212.189.322.283.021.009.04.022.055.04.134.094.268.189.41.275.25.144.514.265.786.362l.15.047c.145.043.292.077.44.103h.284c1.01.054 2.005-.26 2.802-.882l5.264-3.738 5.265-3.74c1.405-.835 2.135-2.463 1.826-4.068z"/>
        <path fill="red" fill-rule="nonzero" d="M189.902 139.433c-1.412.842-2.14 2.482-1.818 4.093.25 1.233 1.01 2.303 2.093 2.944 1.41.854 3.205.718 4.47-.339l5.265-3.738-2.361-3.361-2.361-3.361-5.288 3.762z"/>
        <path fill="#E6E6E6" fill-rule="nonzero" d="M205.208 138.646c1.41-.852 2.128-2.504 1.786-4.116-.248-1.232-1.01-2.3-2.093-2.936-1.407-.856-3.203-.723-4.47.33l-5.265 3.747 2.361 3.36 2.361 3.362 5.32-3.747z"/>
        <path fill="#D21B1F" fill-rule="nonzero" d="M188.784 145.116c.365.554.853 1.017 1.425 1.354 1.409.854 3.205.718 4.47-.339l5.264-3.738-.787-1.07c-7.995 5.698-9.412 4.824-10.372 3.793z"/>
        <path fill="#CCC" fill-rule="nonzero" d="M206.184 132.75c.39.531.659 1.141.787 1.788.338 1.612-.378 3.262-1.787 4.116l-5.264 3.739-.787-1.07c8.074-5.7 7.712-7.329 7.05-8.572z"/>
        <path fill="#FFF" fill-rule="nonzero" d="M200.274 132.782l-4.722 3.377.535.787 4.722-3.377c.217-.147.274-.443.126-.66-.148-.218-.444-.274-.661-.127z"/>
        <path fill="#F37248" fill-rule="nonzero" d="M190.665 139.614c-.102.07-.17.178-.191.3-.021.121.008.246.08.346.072.102.181.171.304.192.123.02.25-.009.35-.082l4.848-3.448-.535-.787-4.856 3.48z"/>
        <path fill="#ADAEB5" fill-rule="nonzero" d="M206.97 154.042c0-.15-.07-.292-.11-.433 0-.079-.062-.158-.086-.236-.024-.079-.055-.15-.086-.22-.032-.072-.056-.103-.08-.15-.023-.047-.094-.197-.149-.291l-.063-.095c-.063-.11-.133-.212-.204-.315-.071-.102 0 0 0 0-.348-.47-.787-.867-1.29-1.165-1.41-.854-3.206-.718-4.47.339l-5.266 3.7-5.264 3.738c-1.43.845-2.16 2.507-1.818 4.132.119.563.346 1.098.669 1.574.18.266.386.514.614.74.101.098.21.19.322.276l.055.047c.132.096.268.186.41.267.249.15.512.274.786.37l.15.048.44.102h.284c1.01.054 2.005-.26 2.802-.882l5.264-3.738 5.265-3.739c1.405-.836 2.135-2.464 1.826-4.07z"/>
        <path fill="red" fill-rule="nonzero" d="M189.902 157.536c-1.412.842-2.14 2.482-1.818 4.093.25 1.234 1.01 2.303 2.093 2.944 1.41.854 3.205.718 4.47-.338l5.265-3.74-2.361-3.36-2.361-3.36-5.288 3.761z"/>
        <path fill="#E6E6E6" fill-rule="nonzero" d="M205.208 156.75c1.409-.854 2.125-2.505 1.786-4.117-.25-1.233-1.01-2.303-2.093-2.944-1.41-.854-3.205-.718-4.47.339l-5.265 3.746 2.361 3.361 2.361 3.36 5.32-3.746z"/>
        <path fill="#D21B1F" fill-rule="nonzero" d="M188.784 163.22c.367.552.854 1.014 1.425 1.353 1.409.854 3.205.718 4.47-.338l5.264-3.74-.787-1.07c-7.995 5.699-9.412 4.825-10.372 3.794z"/>
        <path fill="#CCC" fill-rule="nonzero" d="M206.184 150.854c.39.53.659 1.14.787 1.787.338 1.612-.378 3.262-1.787 4.116l-5.264 3.739-.787-1.07c8.074-5.7 7.712-7.328 7.05-8.572z"/>
        <path fill="#FFF" fill-rule="nonzero" d="M200.274 150.885l-4.722 3.377.535.787 4.722-3.376c.217-.148.274-.444.126-.662-.148-.217-.444-.273-.661-.126z"/>
        <path fill="#F37248" fill-rule="nonzero" d="M190.665 157.71c-.217.15-.272.447-.122.665.15.217.448.272.665.122l4.848-3.448-.535-.787-4.856 3.448z"/>
        <path fill="#ADAEB5" fill-rule="nonzero" d="M206.97 172.145c0-.15-.07-.291-.11-.433 0-.079-.062-.157-.086-.236-.024-.079-.055-.15-.086-.22-.032-.071-.056-.103-.08-.15l-.149-.3-.063-.094-.204-.307c-.348-.47-.787-.867-1.29-1.165-1.41-.853-3.206-.717-4.47.339l-5.266 3.7-5.264 3.738c-1.43.845-2.16 2.507-1.818 4.132.12.563.347 1.097.669 1.574.178.265.384.51.614.732l.322.276.055.047c.132.096.268.186.41.268.249.149.512.273.786.37l.15.047c.145.04.292.071.44.094h.284c1.01.054 2.005-.259 2.802-.881l5.264-3.739 5.265-3.739c1.403-.83 2.133-2.452 1.826-4.053z"/>
        <path fill="red" fill-rule="nonzero" d="M189.902 175.64c-1.414.84-2.142 2.48-1.818 4.092.248 1.232 1.01 2.3 2.093 2.936 1.408.856 3.204.724 4.47-.33l5.265-3.739-2.361-3.36-2.361-3.362-5.288 3.763z"/>
        <path fill="#E6E6E6" fill-rule="nonzero" d="M205.208 174.852c1.409-.853 2.125-2.504 1.786-4.116-.25-1.233-1.01-2.303-2.093-2.944-1.41-.854-3.205-.718-4.47.339l-5.265 3.746 2.361 3.361 2.361 3.361 5.32-3.747z"/>
        <path fill="#D21B1F" fill-rule="nonzero" d="M188.784 181.322c.366.552.853 1.013 1.425 1.346 1.407.856 3.203.724 4.47-.33l5.264-3.739-.787-1.07c-7.995 5.698-9.412 4.824-10.372 3.793z"/>
        <path fill="#CCC" fill-rule="nonzero" d="M206.184 168.957c.392.53.66 1.14.787 1.787.338 1.612-.378 3.263-1.787 4.116l-5.264 3.739-.787-1.07c8.074-5.699 7.712-7.328 7.05-8.572z"/>
        <path fill="#FFF" fill-rule="nonzero" d="M200.274 168.989l-4.722 3.376.535.787 4.722-3.376c.102-.072.171-.181.192-.304.02-.123-.009-.249-.082-.35-.066-.105-.172-.179-.294-.204-.122-.025-.249 0-.351.07z"/>
        <path fill="#F37248" fill-rule="nonzero" d="M190.665 175.813c-.102.071-.171.18-.192.303-.02.123.009.25.082.35.151.209.442.258.653.11l4.848-3.447-.535-.787-4.856 3.47z"/>
        <path fill="#ADAEB5" fill-rule="nonzero" d="M206.97 190.248c0-.15-.07-.291-.11-.433 0-.079-.062-.157-.086-.236l-.086-.228-.08-.142c-.046-.102-.094-.205-.149-.3l-.063-.094-.204-.314c-.348-.471-.787-.868-1.29-1.165-1.41-.852-3.203-.719-4.47.33l-5.266 3.715-5.264 3.739c-1.431.843-2.163 2.507-1.818 4.132.12.563.347 1.097.669 1.574.178.265.384.51.614.732l.322.276.055.047c.132.097.268.186.41.268.247.15.511.271.786.362l.15.047c.144.046.291.08.44.102h.284c1.009.057 2.004-.253 2.802-.873l5.264-3.739 5.265-3.747c1.403-.83 2.133-2.452 1.826-4.053z"/>
        <path fill="red" fill-rule="nonzero" d="M189.902 193.743c-1.41.849-2.127 2.498-1.787 4.108.248 1.234 1.01 2.305 2.094 2.944 1.408.851 3.201.719 4.47-.33l5.264-3.74-2.36-3.36-2.361-3.361-5.32 3.739z"/>
        <path fill="#E6E6E6" fill-rule="nonzero" d="M205.208 192.956c1.409-.854 2.125-2.505 1.786-4.117-.248-1.234-1.009-2.304-2.093-2.944-1.41-.854-3.205-.718-4.47.339l-5.265 3.746 2.361 3.361 2.361 3.361 5.32-3.746z"/>
        <path fill="#D21B1F" fill-rule="nonzero" d="M188.784 199.425c.368.55.855 1.01 1.425 1.346 1.408.852 3.201.719 4.47-.33l5.264-3.739-.787-1.07c-7.995 5.698-9.412 4.825-10.372 3.793z"/>
        <path fill="#CCC" fill-rule="nonzero" d="M206.184 187.06c.392.53.66 1.14.787 1.787.34 1.61-.377 3.26-1.787 4.109l-5.264 3.746-.787-1.07c8.074-5.707 7.712-7.328 7.05-8.572z"/>
        <path fill="#FFF" fill-rule="nonzero" d="M200.274 187.092l-4.722 3.376.535.787 4.722-3.384c.14-.096.22-.259.207-.429-.013-.17-.115-.32-.268-.393-.153-.074-.334-.06-.474.035v.008z"/>
        <path fill="#F37248" fill-rule="nonzero" d="M190.665 193.916c-.102.071-.171.18-.192.303-.02.123.009.25.082.35.151.209.442.258.653.11l4.848-3.447-.535-.787-4.856 3.47z"/>
        <path fill="#ADAEB5" fill-rule="nonzero" d="M206.97 208.343c0-.142-.07-.283-.11-.425 0-.079-.062-.157-.086-.244-.024-.086-.055-.15-.086-.22-.032-.071-.056-.095-.08-.15-.023-.055-.094-.197-.149-.291l-.063-.094c-.063-.11-.133-.213-.204-.315-.071-.103 0 0 0 0-.346-.473-.785-.87-1.29-1.165-1.41-.851-3.203-.719-4.47.33l-5.266 3.715-5.264 3.74c-1.428.846-2.158 2.507-1.818 4.131.117.564.345 1.099.669 1.575.18.263.386.508.614.732l.322.275.055.04c.132.098.268.19.41.275.247.15.511.271.786.362l.15.047c.145.043.292.077.44.102h.284c1.009.058 2.004-.253 2.802-.873l5.264-3.747 5.265-3.738c1.404-.834 2.134-2.458 1.826-4.062z"/>
        <path fill="red" fill-rule="nonzero" d="M189.902 211.846c-1.41.85-2.127 2.498-1.787 4.108.248 1.234 1.01 2.305 2.094 2.944 1.408.851 3.201.719 4.47-.33l5.264-3.747-2.36-3.36-2.361-3.362-5.32 3.747z"/>
        <path fill="#E6E6E6" fill-rule="nonzero" d="M205.208 211.059c1.41-.85 2.126-2.499 1.786-4.109-.248-1.234-1.009-2.304-2.093-2.944-1.409-.851-3.202-.718-4.47.33l-5.265 3.74 2.361 3.36 2.361 3.361 5.32-3.738z"/>
        <path fill="#D21B1F" fill-rule="nonzero" d="M188.784 217.529c.368.55.855 1.01 1.425 1.345 1.408.852 3.201.72 4.47-.33l5.264-3.747-.787-1.062c-7.995 5.698-9.412 4.825-10.372 3.794z"/>
        <path fill="#CCC" fill-rule="nonzero" d="M206.184 205.155c.39.534.659 1.146.787 1.795.34 1.61-.377 3.26-1.787 4.109l-5.264 3.738-.787-1.07c8.074-5.699 7.712-7.32 7.05-8.572z"/>
        <path fill="#FFF" fill-rule="nonzero" d="M200.274 205.195l-4.722 3.376.535.788 4.722-3.377c.217-.148.274-.444.126-.661-.148-.218-.444-.274-.661-.126z"/>
        <path fill="#F37248" fill-rule="nonzero" d="M190.665 212.019c-.102.07-.17.178-.191.3-.021.12.008.246.08.345.072.102.181.172.304.192.123.021.25-.008.35-.082l4.848-3.447-.535-.787-4.856 3.479z"/>
        <path fill="#00A99D" fill-rule="nonzero" d="M96.607 124.644c-3.147-1.197-3.934-2.983-3.934-5.274v-7.87l-18.817.086-18.769-.063v7.87c0 2.291-.787 4.078-3.935 5.274-3.147 1.197-11.804 2.283-11.804 10.437v87.43c0 5.667 2.597 10.736 7.87 10.736h53.316c5.241 0 7.87-5.069 7.87-10.736v-87.453c0-8.155-8.64-9.249-11.797-10.437z"/>
        <path fill="#D8D9D9" fill-rule="nonzero" d="M90.068 102.527H57.724c-2.259 0-3.573 1.574-3.573 4.116v7.21h39.497v-7.21c0-2.519-1.322-4.116-3.58-4.116z"/>
        <path fill="#C5C6C6" fill-rule="nonzero" d="M54.151 112.774H93.641V113.852H54.151z"/>
        <path fill="#C5C6C6" fill-rule="nonzero" d="M56.41 105.069c-.126.004-.244.058-.33.15-.086.09-.131.213-.127.338v8.296h.913v-8.265c.013-.13-.029-.26-.115-.359-.087-.098-.21-.156-.342-.16zM58.597 105.069c-.262.008-.469.226-.464.488v8.296h.89v-8.265c.012-.125-.025-.25-.105-.348-.08-.098-.195-.16-.32-.171zM60.777 105.069c-.125.004-.244.058-.33.15-.085.09-.13.213-.126.338v8.296h.92v-8.265c.014-.131-.03-.263-.117-.362-.089-.098-.214-.156-.347-.157zM62.957 105.069c-.125.004-.244.058-.33.15-.085.09-.13.213-.127.338v8.296h.93v-8.265c.01-.132-.035-.264-.124-.362-.09-.098-.216-.155-.35-.157zM65.153 105.069c-.126.004-.244.058-.33.15-.085.09-.131.213-.127.338v8.296h.913v-8.265c.013-.13-.029-.26-.115-.359-.087-.098-.21-.156-.341-.16zM67.34 105.069c-.13.006-.251.065-.336.163-.085.098-.125.227-.112.356v8.265h.913v-8.265c.013-.131-.03-.263-.118-.362-.088-.098-.214-.156-.347-.157zM69.528 105.069c-.262.008-.469.226-.464.488v8.296h.92v-8.265c.014-.13-.028-.26-.115-.359-.086-.098-.21-.156-.341-.16zM71.708 105.069c-.125.004-.244.058-.33.15-.085.09-.13.213-.127.338v8.296h.921v-8.265c.013-.131-.03-.263-.118-.362-.088-.098-.214-.156-.346-.157zM73.896 105.069c-.126.004-.244.058-.33.15-.085.09-.131.213-.127.338v8.296h.921v-8.265c.01-.131-.033-.261-.12-.36-.088-.097-.213-.155-.344-.16zM76.083 105.069c-.125.004-.243.058-.329.15-.086.09-.131.213-.127.338v8.296h.913v-8.265c.013-.13-.029-.26-.115-.359-.087-.098-.21-.156-.342-.16zM78.271 105.069c-.125.004-.244.058-.33.15-.085.09-.13.213-.126.338v8.296h.881v-8.265c.013-.125-.024-.25-.104-.348-.08-.098-.195-.16-.32-.171zM80.459 105.069c-.262.008-.469.226-.464.488v8.296h.92v-8.265c.014-.13-.028-.26-.115-.359-.086-.098-.21-.156-.341-.16zM82.63 105.069c-.124.004-.243.058-.328.15-.086.09-.132.213-.127.338v8.296h.92v-8.265c.011-.131-.032-.261-.12-.36-.088-.097-.212-.155-.344-.16zM84.827 105.069c-.126.004-.244.058-.33.15-.085.09-.131.213-.127.338v8.296h.913v-8.265c.013-.13-.029-.26-.115-.359-.087-.098-.21-.156-.341-.16zM87.014 105.069c-.125.004-.243.058-.329.15-.086.09-.131.213-.127.338v8.296h.913v-8.265c.013-.13-.029-.26-.115-.359-.087-.098-.21-.156-.342-.16zM89.202 105.069c-.125.004-.244.058-.33.15-.085.09-.13.213-.126.338v8.296h.913v-8.265c.013-.13-.029-.26-.116-.359-.086-.098-.21-.156-.34-.16zM91.39 105.069c-.262.008-.469.226-.464.488v8.296h.92v-8.265c.013-.13-.028-.26-.115-.359-.086-.098-.21-.156-.341-.16z"/>
        <rect width="42.181" height="2.534" x="52.805" y="116.694" fill="#4EC1B4" fill-rule="nonzero" rx="1.267"/>
        <path fill="#7ACDCB" fill-rule="nonzero" d="M39.395 152.83H108.39600000000002V199.733H39.395z"/>
        <path fill="#008E84" fill-rule="nonzero" d="M55.087 113.853H92.712V115.136H55.087zM92.909 121.094c-.14-.564-.206-1.143-.197-1.724v-.141H55.087v.141c.01.581-.057 1.16-.196 1.724h38.018z"/>
        <path fill="#008E84" fill-rule="nonzero" d="M93.648 131.358c2.361 2.361 3.534 2.487 3.534 8.658v77.623c0 9.146-1.094 14.6-7.083 15.647h10.443c5.241 0 7.87-5.069 7.87-10.736v-87.47c0-8.154-8.657-9.248-11.805-10.436-2.36-.882-3.344-2.094-3.714-3.59h-7.61c1.055 4.338 6.005 7.919 8.365 10.304z" opacity=".18" style="mix-blend-mode:multiply"/>
        <path fill="#FFF" fill-rule="nonzero" d="M58.133 121.055s.787 3.935-6.375 6.013c-7.16 2.078-8.656 4.424-8.656 11.02v82.518c0 7.753 1.786 11.618 4.124 12.664h9.64s-2.715-2.92-2.715-9.878v-78.921c0-9.54.944-11.807 4.446-15.026 3.502-3.22 3.935-5.179 3.935-8.39h-4.4z" opacity=".3"/>
        <path fill="#008E84" fill-rule="nonzero" d="M84.992 104.888v8.965h8.656v-7.21c0-2.519-1.314-4.116-3.572-4.116H82.63s2.36.598 2.36 2.36z" opacity=".18" style="mix-blend-mode:multiply"/>
        <path fill="#FFF" fill-rule="nonzero" d="M58.597 102.527s-1.574.606-1.574 1.983v9.343h4.203v-7.871c0-2.235 1.762-3.471 2.36-3.471l-4.989.016z" opacity=".3"/>
        <path fill="#F7931E" fill-rule="nonzero" d="M142 155.23c-2.637-1.204-5.155-3.243-5.155-5.273v-11.988l-16.66-1.684-16.66 1.684v11.988c0 2.03-2.51 4.069-5.147 5.273-2.636 1.204-6.595 3.235-6.595 7.666v79.835c0 7.548 4.077 11.145 9.711 11.145h37.389c5.635 0 9.711-3.597 9.711-11.145v-79.835c0-4.43-3.958-6.47-6.595-7.666z"/>
        <path fill="#F2F2F2" fill-rule="nonzero" d="M91.783 181.236H148.594V222.952H91.783z"/>
        <path fill="#333" fill-rule="nonzero" d="M135.082 253.876h3.8c5.636 0 9.712-3.597 9.712-11.145v-79.835c0-4.43-3.935-6.47-6.595-7.666-2.66-1.196-5.154-3.243-5.154-5.273v-2.834l-4.785 1.755.173 1.094c.775 2.284 2.131 4.327 3.935 5.927 2.967 2.566 5.123 5.4 5.123 8.005v78.48c.024 9.517-6.21 11.492-6.21 11.492z" opacity=".14" style="mix-blend-mode:multiply"/>
        <path fill="#F2F2F2" fill-rule="nonzero" d="M124.497 100.449h-8.656s-3.306 12.703-14.323 17.26h37.389c-11.05-4.557-14.41-17.26-14.41-17.26z"/>
        <path fill="#E6E6E6" fill-rule="nonzero" d="M101.518 117.71h37.389v19.897c0 1.456-1.18 2.637-2.637 2.637h-32.147c-1.456 0-2.636-1.18-2.636-2.637V117.71h.031z"/>
        <rect width="37.389" height="6.651" x="101.14" y="142.204" fill="#E6E6E6" fill-rule="nonzero" rx="2.11"/>
        <rect width="1" height="19.15" x="102.392" y="119.024" fill="#CCC" fill-rule="nonzero" rx=".45"/>
        <rect width="1" height="19.15" x="103.973" y="119.024" fill="#CCC" fill-rule="nonzero" rx=".45"/>
        <rect width="1" height="19.15" x="105.563" y="119.024" fill="#CCC" fill-rule="nonzero" rx=".45"/>
        <rect width="1" height="19.15" x="107.145" y="119.024" fill="#CCC" fill-rule="nonzero" rx=".45"/>
        <rect width="1" height="19.15" x="108.734" y="119.024" fill="#CCC" fill-rule="nonzero" rx=".45"/>
        <rect width="1" height="19.15" x="110.316" y="119.024" fill="#CCC" fill-rule="nonzero" rx=".45"/>
        <rect width="1" height="19.15" x="111.906" y="119.024" fill="#CCC" fill-rule="nonzero" rx=".45"/>
        <rect width="1" height="19.15" x="113.488" y="119.024" fill="#CCC" fill-rule="nonzero" rx=".45"/>
        <rect width="1" height="19.15" x="115.077" y="119.024" fill="#CCC" fill-rule="nonzero" rx=".45"/>
        <rect width="1" height="19.15" x="116.659" y="119.024" fill="#CCC" fill-rule="nonzero" rx=".45"/>
        <rect width="1" height="19.15" x="118.249" y="119.024" fill="#CCC" fill-rule="nonzero" rx=".45"/>
        <rect width="1" height="19.15" x="119.831" y="119.024" fill="#CCC" fill-rule="nonzero" rx=".45"/>
        <rect width="1" height="19.15" x="121.42" y="119.024" fill="#CCC" fill-rule="nonzero" rx=".45"/>
        <rect width="1" height="19.15" x="123.01" y="119.024" fill="#CCC" fill-rule="nonzero" rx=".45"/>
        <rect width="1" height="19.15" x="124.592" y="119.024" fill="#CCC" fill-rule="nonzero" rx=".45"/>
        <rect width="1" height="19.15" x="126.181" y="119.024" fill="#CCC" fill-rule="nonzero" rx=".45"/>
        <rect width="1" height="19.15" x="127.763" y="119.024" fill="#CCC" fill-rule="nonzero" rx=".45"/>
        <rect width="1" height="19.15" x="129.353" y="119.024" fill="#CCC" fill-rule="nonzero" rx=".45"/>
        <rect width="1" height="19.15" x="130.935" y="119.024" fill="#CCC" fill-rule="nonzero" rx=".45"/>
        <rect width="1" height="19.15" x="132.524" y="119.024" fill="#CCC" fill-rule="nonzero" rx=".45"/>
        <rect width="1" height="19.15" x="134.106" y="119.024" fill="#CCC" fill-rule="nonzero" rx=".45"/>
        <rect width="1" height="19.15" x="135.696" y="119.024" fill="#CCC" fill-rule="nonzero" rx=".45"/>
        <rect width="1" height="19.15" x="137.278" y="119.024" fill="#CCC" fill-rule="nonzero" rx=".45"/>
        <path fill="#D6811B" fill-rule="nonzero" d="M103.525 140.244H136.845V141.259H103.525zM103.525 148.871H136.845V149.949H103.525z"/>
        <path fill="#333" fill-rule="nonzero" d="M132.06 148.878h4.958c.836-.004 1.51-.683 1.51-1.519v-3.62c0-.836-.674-1.515-1.51-1.52h-5.375s1.228.363 1.228 1.323v3.715c-.015.634-.312 1.23-.811 1.621zM130.053 140.22h6.422c1.33 0 2.408-1.078 2.408-2.408V117.71c-11.018-4.558-14.386-17.261-14.386-17.261h-2.36c.994 6.553 4.084 12.609 8.806 17.26v20.15c-.008 1.905-.89 2.361-.89 2.361z" opacity=".14" style="mix-blend-mode:multiply"/>
        <path fill="#FFF" fill-rule="nonzero" d="M116.66 100.449s-2.417 13.246-11.467 17.26v18.938c-.036 1.272.33 2.522 1.047 3.573h4.407c-.75-1.078-1.178-2.347-1.236-3.66v-18.89s7.264-5.871 8.523-17.26l-1.275.039z" opacity=".64"/>
        <path fill="#FFF" fill-rule="nonzero" d="M107.562 149.957c-.297 1.904-1.46 3.564-3.148 4.494-2.872 1.574-6.65 4.046-6.65 7.73v78.394c0 8.658 4.045 12.593 7.374 13.301h7.909s-5.666-2.07-5.666-13.577v-76.466c0-6.832 2.432-7.816 3.061-10.515.301-1.088.512-2.2.63-3.322l-3.51-.04z" opacity=".35"/>
        <path fill="#FFF" fill-rule="nonzero" d="M107.853 142.204s-1.039.496-1.039 1.393v3.148c.088.817.455 1.579 1.04 2.157H111c-.562-.424-.935-1.051-1.039-1.747v-3.314c.048-.686.439-1.302 1.039-1.637h-3.148z"/>
        <path fill="#BA9BC9" fill-rule="nonzero" d="M219.562 206.21l-46.903.244s.197 37.97.22 41.362c.024 3.392.677 6.218 6.462 6.187l40.473-.213 40.466-.213c5.784 0 6.421-2.857 6.406-6.25-.016-3.392-.22-41.369-.22-41.369l-46.904.252z"/>
        <path fill="#F2F2F2" fill-rule="nonzero" d="M226.747 214.467l-54.033.291.071 14.357.079 14.356 54.033-.283c1.282 0 3.148-.3 3.148-3.408 0-3.11-.056-10.965-.056-10.965s0-7.87-.055-10.972c-.055-3.1-1.904-3.376-3.187-3.376z"/>
        <path fill="#9F85AD" fill-rule="nonzero" d="M172.667 206.454v2.786l75.234-.393c4.666 0 5.06 2.519 5.076 4.92.015 2.4.141 27.547.165 32.64.023 5.092-1.63 7.218-5.509 7.233l12.63-.063c5.785 0 6.422-2.857 6.407-6.25-.016-3.392-.22-41.369-.22-41.369l-46.904.252-46.879.244z"/>
        <path fill="#FFF0D8" fill-rule="nonzero" d="M263.931 187.666l-44.455.229-44.456.236c-2.825 0-4.517 1.338-4.501 3.605.016 2.266.078 15.072.078 15.072l48.973-.26 48.98-.26-.078-15.072c-.016-2.259-1.692-3.565-4.54-3.55z"/>
        <path fill="#EEE0CB" fill-rule="nonzero" d="M171.563 203.44L269.521 203.439 269.521 205.51 171.563 205.51z" transform="rotate(-.573 220.542 204.475)"/>
        <path fill="#EEE0CB" fill-rule="nonzero" d="M174.218 192.46c0-.448-.363-.811-.811-.811-.448 0-.81.363-.81.81l.07 13.987c0 .118.028.233.079.339h1.472c.05-.106.078-.221.078-.339l-.078-13.986zM177.397 192.436c0-.448-.363-.81-.81-.81-.448 0-.811.362-.811.81l.07 13.995c.001.117.028.232.08.338h1.47c.052-.105.076-.222.072-.338l-.071-13.995zM180.576 192.42c0-.447-.363-.81-.81-.81-.448 0-.811.363-.811.81l.07 13.995c.002.117.028.233.08.338h1.471c.049-.106.073-.222.071-.338l-.07-13.995zM183.755 192.405c0-.448-.362-.811-.81-.811-.448 0-.81.363-.81.81l.07 13.987c.001.12.028.238.079.347h1.471c.05-.11.074-.227.071-.347l-.07-13.986zM186.935 192.389c0-.45-.365-.815-.815-.815-.45 0-.814.365-.814.815l.078 13.986c.002.12.03.238.08.347h1.47c.048-.11.073-.227.072-.347l-.071-13.986zM190.114 192.373c0-.45-.365-.815-.814-.815-.45 0-.815.365-.815.815l.079 13.987c.002.12.028.237.079.346h1.463c.053-.108.08-.226.079-.346l-.07-13.987zM193.293 192.357c0-.45-.364-.814-.814-.814-.45 0-.815.364-.815.814l.08 13.987c0 .117.027.233.078.338h1.464c.054-.104.081-.22.078-.338l-.07-13.987zM196.473 192.342c0-.45-.365-.815-.815-.815-.45 0-.814.365-.814.815l.078 13.986c-.002.118.025.234.08.339h1.463c.051-.106.078-.222.079-.339l-.071-13.986zM199.652 192.326c0-.45-.365-.815-.814-.815-.45 0-.815.365-.815.815l.07 13.986c.005.118.035.234.087.339h1.464c.051-.106.078-.221.079-.339l-.07-13.986zM202.831 192.302c0-.45-.364-.814-.814-.814-.45 0-.815.364-.815.814l.071 13.995c.001.118.03.234.087.338h1.464c.05-.105.078-.221.078-.338l-.07-13.995zM206.003 192.287c0-.448-.363-.811-.81-.811-.448 0-.811.363-.811.81l.07 13.995c.001.117.028.233.08.338h1.47c.052-.105.079-.22.08-.338l-.08-13.994zM209.182 192.27c0-.447-.363-.81-.81-.81-.448 0-.81.363-.81.81l.07 13.995c0 .118.027.233.079.339h1.471c.051-.109.078-.227.079-.347l-.079-13.986zM212.362 192.255c0-.448-.363-.81-.811-.81-.448 0-.81.362-.81.81l.07 13.987c.001.12.028.238.079.346h1.472c.05-.109.076-.227.078-.346l-.078-13.987zM215.54 192.24c0-.448-.362-.811-.81-.811-.447 0-.81.363-.81.81l.07 13.987c.002.12.03.238.08.346h1.47c.051-.108.078-.226.08-.346l-.08-13.987zM218.72 192.224c0-.448-.363-.811-.81-.811-.448 0-.811.363-.811.81l.07 13.987c.002.117.028.233.08.339h1.471c.052-.105.076-.222.071-.339l-.07-13.986zM221.923 192.208c0-.448-.363-.81-.81-.81-.448 0-.811.362-.811.81l.07 13.986c.001.118.028.233.08.339h1.471c.049-.106.073-.222.07-.339l-.07-13.986zM225.071 192.168c0-.434-.352-.787-.787-.787-.435 0-.787.353-.787.787l.07 13.987c.002.117.028.233.08.339h1.424c.048-.107.073-.222.07-.339l-.07-13.987zM228.258 192.168c0-.45-.365-.814-.814-.814-.45 0-.815.365-.815.814l.079 13.987c0 .117.027.233.079.339h1.471c.049-.107.073-.222.071-.339l-.07-13.987zM231.437 192.168c0-.45-.364-.814-.814-.814-.45 0-.815.365-.815.814l.08 13.995c0 .117.027.233.078.338h1.464c.053-.104.08-.22.078-.338l-.07-13.995zM234.617 192.168c0-.45-.365-.814-.815-.814-.45 0-.814.365-.814.814l.078 13.995c.001.117.028.233.08.338h1.463c.054-.107.082-.226.079-.346l-.071-13.987zM237.796 192.121c0-.45-.365-.814-.814-.814-.45 0-.815.364-.815.814l.079 13.987c-.003.12.024.239.079.346h1.463c.05-.109.077-.227.079-.346l-.07-13.987zM240.975 192.105c0-.45-.364-.814-.814-.814-.45 0-.815.365-.815.814l.071 13.987c.005.12.034.238.087.346h1.464c.05-.108.076-.226.078-.346l-.07-13.987zM244.155 192.09c0-.45-.365-.815-.815-.815-.45 0-.814.365-.814.815l.07 13.986c0 .119.03.235.087.339h1.464c.05-.109.077-.227.079-.347l-.071-13.978zM247.326 192.074c0-.448-.363-.81-.81-.81-.448 0-.81.362-.81.81l.07 13.987c0 .117.027.233.079.338h1.471c.051-.105.078-.221.079-.338l-.079-13.987zM250.506 192.058c0-.447-.363-.81-.811-.81-.448 0-.81.363-.81.81l.07 13.987c0 .117.028.233.079.338h1.472c.05-.105.078-.22.078-.338l-.078-13.987zM253.685 192.035c0-.435-.352-.787-.787-.787-.435 0-.787.352-.787.787l.07 13.986c.001.118.028.233.08.339h1.471c.051-.106.078-.221.079-.339l-.126-13.986zM256.864 192.019c0-.448-.363-.81-.81-.81-.448 0-.81.362-.81.81l.07 13.994c0 .118.027.233.079.339h1.471c.051-.106.078-.221.079-.339l-.079-13.994zM260.044 192.003c0-.448-.363-.81-.811-.81-.448 0-.81.362-.81.81l.07 13.995c0 .117.028.233.079.338h1.472c.052-.108.076-.227.07-.346l-.07-13.987zM263.223 191.987c0-.447-.363-.81-.81-.81-.448 0-.811.363-.811.81l.07 13.987c.001.12.028.238.08.346h1.47c.048-.109.073-.227.072-.346l-.071-13.987zM266.402 191.972c0-.448-.363-.811-.81-.811-.448 0-.811.363-.811.81l.07 13.987c.003.12.03.238.08.347h1.471c.048-.11.072-.228.071-.347l-.07-13.986z"/>
        <path fill="#FFF" fill-rule="nonzero" d="M176.673 209.225s.189 35.466.204 39c.055 2.171.94 4.238 2.471 5.777l18.368-.094c-1.638-1.162-2.593-3.06-2.55-5.069 0-3.534-.212-39.7-.212-39.7l-18.281.086z" opacity=".26"/>
        <path fill="#333" fill-rule="nonzero" d="M250.506 192.058c0 2.362.055 9.327.078 14.325l17.967-.094-.08-15.073c0-2.259-1.715-3.565-4.54-3.55l-16.62.087s3.179.378 3.195 4.305z" opacity=".14" style="mix-blend-mode:multiply"/>
        <path fill="#B6946C" fill-rule="nonzero" d="M77.956 238.48v-26.477c0-2.204-.834-3.857-4.28-3.857H9.443c-3.447 0-4.274 1.653-4.274 3.857v26.478c0 2.212.787 3.865 4.274 3.865h64.231c3.447 0 4.281-1.653 4.281-3.865z"/>
        <path fill="#EEBF8B" fill-rule="nonzero" d="M76.713 238.48v-26.477c0-2.204-.787-3.857-4.132-3.857H10.514c-3.329 0-4.124 1.653-4.124 3.857v26.478c0 2.212.787 3.865 4.124 3.865H72.58c3.33 0 4.132-1.653 4.132-3.865z"/>
        <path fill="#B6946C" fill-rule="nonzero" d="M58.306 236.135v-21.778c0-1.819-.386-3.149-1.967-3.149H26.757c-1.574 0-1.968 1.362-1.968 3.149v21.778c0 1.819.378 3.149 1.968 3.149h29.582c1.581.031 1.967-1.33 1.967-3.149z"/>
        <path fill="#EEBF8B" fill-rule="nonzero" d="M57.613 236.135v-21.778c0-1.819-.362-3.149-1.888-3.149h-28.33c-1.52 0-1.89 1.362-1.89 3.149v21.778c0 1.819.37 3.149 1.89 3.149h28.33c1.526.031 1.888-1.33 1.888-3.149z"/>
        <path fill="#FFD699" fill-rule="nonzero" d="M56.992 236.135v-21.778c0-1.819-.347-3.149-1.81-3.149h-27.26c-1.464 0-1.818 1.362-1.818 3.149v21.778c0 1.819.354 3.149 1.817 3.149h27.26c1.48.031 1.81-1.33 1.81-3.149z"/>
        <circle cx="71.338" cy="212.9" r="1" fill="#B6946C" fill-rule="nonzero"/>
        <circle cx="71.338" cy="219.071" r="1" fill="#B6946C" fill-rule="nonzero"/>
        <circle cx="71.338" cy="225.242" r="1" fill="#B6946C" fill-rule="nonzero"/>
        <circle cx="71.338" cy="231.421" r="1" fill="#B6946C" fill-rule="nonzero"/>
        <path fill="#B6946C" fill-rule="nonzero" d="M71.338 238.34c-.408-.001-.74-.328-.746-.736-.007-.408.314-.746.721-.76.408-.014.751.301.773.708 0 .42-.329.766-.748.787zM68.308 213.648c-.434 0-.787-.352-.787-.787 0-.435.353-.787.787-.787.435 0 .787.352.787.787.012.212-.068.42-.218.57-.15.15-.357.229-.569.217zM68.308 219.819c-.407-.021-.722-.365-.708-.773.015-.407.352-.728.76-.721.408.006.735.339.735.746.003.206-.08.404-.23.546-.15.142-.351.215-.557.202zM68.308 226.013c-.434 0-.787-.352-.787-.787 0-.434.353-.787.787-.787.435 0 .787.353.787.787 0 .435-.352.787-.787.787zM68.308 232.168c-.322 0-.61-.196-.73-.495-.119-.3-.044-.64.19-.862.233-.222.577-.28.87-.145.292.134.473.433.457.755 0 .205-.084.401-.232.543-.15.141-.35.215-.555.204zM68.308 238.34c-.402-.023-.714-.358-.707-.76.007-.403.332-.728.734-.735.403-.007.738.305.76.707.014.213-.064.421-.215.572-.15.15-.359.23-.572.215z"/>
        <circle cx="65.278" cy="212.9" r="1" fill="#B6946C" fill-rule="nonzero"/>
        <circle cx="65.278" cy="219.071" r="1" fill="#B6946C" fill-rule="nonzero"/>
        <circle cx="65.278" cy="225.242" r="1" fill="#B6946C" fill-rule="nonzero"/>
        <circle cx="65.278" cy="231.421" r="1" fill="#B6946C" fill-rule="nonzero"/>
        <path fill="#B6946C" fill-rule="nonzero" d="M65.318 238.34c-.435 0-.787-.353-.787-.788 0-.435.352-.787.787-.787.434 0 .787.352.787.787.011.212-.068.42-.218.57-.15.15-.357.229-.57.217z"/>
        <circle cx="62.257" cy="212.9" r="1" fill="#B6946C" fill-rule="nonzero"/>
        <circle cx="62.257" cy="219.071" r="1" fill="#B6946C" fill-rule="nonzero"/>
        <circle cx="62.257" cy="225.242" r="1" fill="#B6946C" fill-rule="nonzero"/>
        <circle cx="62.257" cy="231.421" r="1" fill="#B6946C" fill-rule="nonzero"/>
        <path fill="#B6946C" fill-rule="nonzero" d="M62.257 238.34c-.402-.023-.715-.358-.708-.76.008-.403.332-.728.734-.735.403-.007.739.305.76.707 0 .435-.352.787-.786.787z"/>
        <circle cx="20.847" cy="212.9" r="1" fill="#B6946C" fill-rule="nonzero"/>
        <circle cx="20.847" cy="219.071" r="1" fill="#B6946C" fill-rule="nonzero"/>
        <circle cx="20.847" cy="225.242" r="1" fill="#B6946C" fill-rule="nonzero"/>
        <circle cx="20.847" cy="231.421" r="1" fill="#B6946C" fill-rule="nonzero"/>
        <path fill="#B6946C" fill-rule="nonzero" d="M20.847 238.34c-.402-.023-.715-.358-.707-.76.007-.403.331-.728.734-.735.402-.007.738.305.76.707 0 .435-.353.787-.787.787z"/>
        <circle cx="17.817" cy="212.9" r="1" fill="#B6946C" fill-rule="nonzero"/>
        <circle cx="17.817" cy="219.071" r="1" fill="#B6946C" fill-rule="nonzero"/>
        <circle cx="17.817" cy="225.242" r="1" fill="#B6946C" fill-rule="nonzero"/>
        <circle cx="17.817" cy="231.421" r="1" fill="#B6946C" fill-rule="nonzero"/>
        <path fill="#B6946C" fill-rule="nonzero" d="M17.817 238.34c-.435 0-.787-.353-.787-.788 0-.435.352-.787.787-.787.434 0 .787.352.787.787.014.213-.065.421-.215.572-.151.15-.36.23-.572.215z"/>
        <circle cx="14.787" cy="212.9" r="1" fill="#B6946C" fill-rule="nonzero"/>
        <circle cx="14.787" cy="219.071" r="1" fill="#B6946C" fill-rule="nonzero"/>
        <circle cx="14.787" cy="225.242" r="1" fill="#B6946C" fill-rule="nonzero"/>
        <circle cx="14.787" cy="231.421" r="1" fill="#B6946C" fill-rule="nonzero"/>
        <path fill="#B6946C" fill-rule="nonzero" d="M14.787 238.34c-.435 0-.787-.353-.787-.788 0-.435.352-.787.787-.787.435 0 .787.352.787.787.011.212-.068.42-.218.57-.15.15-.357.229-.569.217z"/>
        <circle cx="11.765" cy="212.9" r="1" fill="#B6946C" fill-rule="nonzero"/>
        <circle cx="11.765" cy="219.071" r="1" fill="#B6946C" fill-rule="nonzero"/>
        <circle cx="11.765" cy="225.242" r="1" fill="#B6946C" fill-rule="nonzero"/>
        <circle cx="11.765" cy="231.421" r="1" fill="#B6946C" fill-rule="nonzero"/>
        <path fill="#B6946C" fill-rule="nonzero" d="M11.804 238.34c-.401-.023-.714-.358-.707-.76.008-.403.332-.728.734-.735.403-.007.739.305.76.707 0 .435-.352.787-.787.787zM92.074 247.265v-26.478c0-2.212-.826-3.865-4.273-3.865H23.61c-3.447 0-4.273 1.653-4.273 3.865v26.478c0 2.204.787 3.857 4.273 3.857h64.255c3.424 0 4.21-1.653 4.21-3.857z"/>
        <path fill="#EEBF8B" fill-rule="nonzero" d="M90.87 247.265v-26.478c0-2.212-.787-3.865-4.131-3.865H24.67c-3.329 0-4.131 1.653-4.131 3.865v26.478c0 2.204.787 3.857 4.131 3.857H86.74c3.329 0 4.131-1.653 4.131-3.857z"/>
        <path fill="#B6946C" fill-rule="nonzero" d="M72.456 244.904v-21.771c0-1.819-.378-3.149-1.968-3.149H40.922c-1.574 0-1.96 1.362-1.96 3.149v21.77c0 1.819.378 3.149 1.96 3.149h29.566c1.59.04 1.968-1.322 1.968-3.148z"/>
        <path fill="#EEBF8B" fill-rule="nonzero" d="M71.77 244.904v-21.771c0-1.819-.369-3.149-1.888-3.149h-28.33c-1.52 0-1.89 1.362-1.89 3.149v21.77c0 1.819.37 3.149 1.89 3.149h28.33c1.519.04 1.889-1.322 1.889-3.148z"/>
        <path fill="#FFD699" fill-rule="nonzero" d="M71.15 244.904v-21.771c0-1.819-.355-3.149-1.819-3.149h-27.26c-1.456 0-1.81 1.362-1.81 3.149v21.77c0 1.819.354 3.149 1.81 3.149h27.26c1.496.04 1.818-1.322 1.818-3.148z"/>
        <path fill="#B6946C" fill-rule="nonzero" d="M85.488 222.424c-.322 0-.611-.196-.73-.495-.12-.3-.045-.64.189-.862.233-.222.578-.28.87-.145.292.134.474.433.458.755 0 .205-.084.401-.233.543-.149.141-.35.215-.554.204zM85.488 228.603c-.435 0-.787-.352-.787-.787 0-.435.352-.787.787-.787.434 0 .787.352.787.787 0 .435-.353.787-.787.787z"/>
        <circle cx="85.488" cy="234.026" r="1" fill="#B6946C" fill-rule="nonzero"/>
        <circle cx="85.488" cy="240.197" r="1" fill="#B6946C" fill-rule="nonzero"/>
        <circle cx="85.488" cy="246.368" r="1" fill="#B6946C" fill-rule="nonzero"/>
        <path fill="#B6946C" fill-rule="nonzero" d="M82.466 222.424c-.413 0-.748-.335-.748-.747 0-.413.335-.748.748-.748s.747.335.747.748c-.02.404-.343.727-.747.747zM82.466 228.603c-.322.016-.62-.165-.755-.458-.134-.292-.077-.637.145-.87.221-.234.563-.309.862-.19.299.12.495.409.495.73 0 .42-.328.767-.747.788zM82.466 234.774c-.325.016-.626-.17-.758-.468-.132-.297-.067-.645.163-.875.23-.23.578-.295.875-.163.298.132.483.433.467.758-.02.404-.343.728-.747.748zM82.466 240.968c-.322.016-.62-.165-.755-.457-.134-.293-.077-.638.145-.871.221-.233.563-.308.862-.19.299.12.495.41.495.731 0 .42-.328.766-.747.787zM82.466 247.123c-.322.016-.62-.165-.755-.457-.134-.293-.077-.638.145-.871.221-.233.563-.308.862-.19.299.12.495.41.495.731 0 .42-.328.766-.747.787zM79.436 222.424c-.407-.021-.722-.365-.708-.772.014-.408.352-.729.76-.722.407.007.734.339.735.747.002.206-.081.403-.23.545-.15.142-.352.215-.557.202zM79.436 228.603c-.435 0-.787-.352-.787-.787 0-.435.352-.787.787-.787.435 0 .787.352.787.787 0 .435-.352.787-.787.787z"/>
        <circle cx="79.436" cy="234.026" r="1" fill="#B6946C" fill-rule="nonzero"/>
        <circle cx="79.436" cy="240.197" r="1" fill="#B6946C" fill-rule="nonzero"/>
        <circle cx="79.436" cy="246.368" r="1" fill="#B6946C" fill-rule="nonzero"/>
        <path fill="#B6946C" fill-rule="nonzero" d="M76.406 222.424c-.322 0-.61-.196-.73-.495-.12-.3-.044-.64.189-.862.233-.222.578-.28.87-.145.293.134.474.433.458.755 0 .205-.084.401-.233.543-.148.141-.349.215-.554.204zM76.406 228.603c-.435 0-.787-.352-.787-.787 0-.435.352-.787.787-.787.435 0 .787.352.787.787 0 .435-.352.787-.787.787zM76.406 234.774c-.322 0-.61-.197-.73-.496s-.044-.64.189-.862c.233-.222.578-.279.87-.145.293.135.474.434.458.755-.02.42-.367.748-.787.748zM76.406 240.968c-.435 0-.787-.352-.787-.787 0-.435.352-.787.787-.787.435 0 .787.352.787.787.012.212-.068.419-.218.57-.15.15-.357.229-.569.217zM76.406 247.123c-.435 0-.787-.352-.787-.787 0-.435.352-.787.787-.787.435 0 .787.352.787.787 0 .435-.352.787-.787.787zM35.004 222.424c-.407-.021-.722-.365-.708-.772.014-.408.352-.729.76-.722.407.007.734.339.735.747-.021.419-.367.748-.787.747zM35.004 228.603c-.435 0-.787-.352-.787-.787 0-.435.352-.787.787-.787.435 0 .787.352.787.787 0 .435-.352.787-.787.787z"/>
        <circle cx="35.004" cy="234.026" r="1" fill="#B6946C" fill-rule="nonzero"/>
        <circle cx="35.004" cy="240.197" r="1" fill="#B6946C" fill-rule="nonzero"/>
        <circle cx="35.004" cy="246.368" r="1" fill="#B6946C" fill-rule="nonzero"/>
        <path fill="#B6946C" fill-rule="nonzero" d="M31.974 222.424c-.413 0-.747-.335-.747-.747 0-.413.334-.748.747-.748s.748.335.748.748c.002.198-.076.39-.217.53-.14.141-.332.22-.53.217zM31.974 228.603c-.321.016-.62-.165-.754-.458-.135-.292-.077-.637.144-.87.222-.234.563-.309.862-.19.3.12.495.409.496.73 0 .42-.329.767-.748.788zM31.974 234.774c-.325.016-.626-.17-.758-.468-.131-.297-.067-.645.163-.875.23-.23.578-.295.876-.163.297.132.483.433.467.758 0 .413-.335.748-.748.748zM31.974 240.968c-.321.016-.62-.165-.754-.457-.135-.293-.077-.638.144-.871.222-.233.563-.308.862-.19.3.12.495.41.496.731.013.206-.06.407-.202.557-.142.15-.34.233-.546.23zM31.974 247.123c-.321.016-.62-.165-.754-.457-.135-.293-.077-.638.144-.871.222-.233.563-.308.862-.19.3.12.495.41.496.731 0 .42-.329.766-.748.787zM28.944 222.424c-.321 0-.61-.196-.73-.495-.119-.3-.044-.64.19-.862.233-.222.577-.28.87-.145.292.134.473.433.457.755 0 .205-.083.401-.232.543-.15.141-.35.215-.555.204zM28.944 228.603c-.434 0-.787-.352-.787-.787 0-.435.353-.787.787-.787.435 0 .787.352.787.787 0 .435-.352.787-.787.787z"/>
        <circle cx="28.944" cy="234.026" r="1" fill="#B6946C" fill-rule="nonzero"/>
        <circle cx="28.944" cy="240.197" r="1" fill="#B6946C" fill-rule="nonzero"/>
        <circle cx="28.944" cy="246.368" r="1" fill="#B6946C" fill-rule="nonzero"/>
        <path fill="#B6946C" fill-rule="nonzero" d="M25.923 222.424c-.408-.021-.722-.365-.708-.772.014-.408.352-.729.76-.722.407.007.734.339.734.747-.02.419-.367.748-.786.747zM25.923 228.603c-.435 0-.787-.352-.787-.787 0-.435.352-.787.787-.787.434 0 .786.352.786.787 0 .435-.352.787-.786.787z"/>
        <circle cx="25.923" cy="234.026" r="1" fill="#B6946C" fill-rule="nonzero"/>
        <circle cx="25.923" cy="240.197" r="1" fill="#B6946C" fill-rule="nonzero"/>
        <circle cx="25.923" cy="246.368" r="1" fill="#B6946C" fill-rule="nonzero"/>
        <circle cx="249.889" cy="232.079" r="10.861" fill="#CCC" fill-rule="nonzero" transform="rotate(-45 249.889 232.08)"/>
        <ellipse cx="249.372" cy="231.562" fill="#FFF" fill-rule="nonzero" rx="10.349" ry="10.35"/>
        <ellipse cx="249.372" cy="231.562" fill="#E6E6E6" fill-rule="nonzero" rx="9.672" ry="9.673"/>
        <ellipse cx="249.372" cy="231.562" fill="#E6E6E6" fill-rule="nonzero" rx="9.672" ry="9.673"/>
        <path fill="#FFF" fill-rule="nonzero" d="M250.545 241.165v-19.197c-.389-.05-.78-.077-1.173-.079v19.347c.392 0 .784-.024 1.173-.071z"/>
        <path fill="#CCC" fill-rule="nonzero" d="M248.782 241.22h1.173v-19.307h-1.173v19.307z"/>
        <rect width="24.868" height="7.981" x="231.516" y="243.046" fill="#E6E6E6" fill-rule="nonzero" rx="2.62"/>
        <path fill="#FFF" fill-rule="nonzero" d="M256.384 244.298v-.182c0-.6-.486-1.086-1.086-1.086h-22.696c-.6 0-1.086.487-1.086 1.086v.205c3.943 0 20.005-.079 24.868-.023z"/>
        <path fill="#CCC" fill-rule="nonzero" d="M256.384 249.784v.157c0 .6-.486 1.086-1.086 1.086h-22.696c-.6 0-1.086-.486-1.086-1.086v-.205c3.943.024 20.005.103 24.868.048z"/>
        <rect width="24.868" height="7.981" x="233.586" y="251.137" fill="#E6E6E6" fill-rule="nonzero" rx="2.62"/>
        <path fill="#FFF" fill-rule="nonzero" d="M258.454 252.381v-.157c0-.6-.486-1.087-1.086-1.087h-22.696c-.6 0-1.086.487-1.086 1.087v.196c3.943-.015 20.012-.094 24.868-.039z"/>
        <path fill="#CCC" fill-rule="nonzero" d="M258.454 257.867v.157c0 .6-.486 1.087-1.086 1.087h-22.696c-.6 0-1.086-.487-1.086-1.087v-.204c3.943.023 20.012.102 24.868.047z"/>
        <ellipse cx="269.432" cy="251.751" fill="#C32F2F" fill-rule="nonzero" rx="9.719" ry="7.17"/>
        <path fill="#E43839" fill-rule="nonzero" d="M277.955 250.161c-.004-.928-.242-1.84-.693-2.652-2.129-1.96-4.938-3.01-7.83-2.928-5.367 0-9.711 3.211-9.711 7.17.004.928.239 1.84.685 2.653 2.138 1.97 4.964 3.02 7.87 2.928 5.327 0 9.679-3.212 9.679-7.17z"/>
        <path fill="#E65040" fill-rule="nonzero" d="M275.318 248.839c.284 2.48-2.699 4.864-6.673 5.329-3.974.464-7.429-1.173-7.712-3.652-.284-2.48 2.7-4.865 6.673-5.33 3.974-.463 7.421 1.166 7.712 3.653z"/>
        <path fill="#F47A56" fill-rule="nonzero" d="M270.636 246.478c.094.543-1.322 1.228-3.148 1.535-1.826.307-3.392.118-3.478-.418-.087-.535 1.322-1.22 3.148-1.527 1.825-.306 3.391-.141 3.478.41z"/>
        <path fill="#C32F2F" fill-rule="nonzero" d="M285.8 258.859c-3.218 2.306-8.357.637-11.481-3.731-3.124-4.368-3.046-9.768.173-12.074 3.219-2.306 8.366-.63 11.482 3.73 3.116 4.361 3.045 9.776-.173 12.075z"/>
        <path fill="#E43839" fill-rule="nonzero" d="M286.399 256.962c.752-.542 1.356-1.265 1.755-2.102.355-2.873-.427-5.771-2.18-8.075-3.148-4.36-8.263-6.037-11.482-3.731-.752.545-1.355 1.27-1.755 2.11-.351 2.87.43 5.764 2.18 8.067 3.124 4.368 8.263 6.037 11.482 3.73z"/>
        <path fill="#E65040" fill-rule="nonzero" d="M285.942 254.042c-1.841 1.684-5.508.637-8.208-2.322-2.699-2.96-3.368-6.73-1.51-8.39 1.857-1.661 5.508-.63 8.207 2.36 2.7 2.992 3.36 6.675 1.511 8.352z"/>
        <path fill="#F47A56" fill-rule="nonzero" d="M285.148 248.839c-.386.386-1.763-.37-3.077-1.676-1.315-1.307-2.078-2.692-1.692-3.078.385-.386 1.762.362 3.084 1.677 1.323 1.314 2.07 2.715 1.685 3.077z"/>
        <path fill="red" fill-rule="nonzero" d="M257.478 251.657c-1.608-.244-3.192.567-3.935 2.015-.575 1.091-.66 2.375-.236 3.534.545 1.52 1.99 2.53 3.604 2.519l6.296.417.268-4.03.275-4.03-6.272-.425z"/>
        <path fill="#0071BC" fill-rule="nonzero" d="M269.566 260.567c1.608.243 3.192-.568 3.935-2.015.574-1.09.66-2.37.236-3.526-.541-1.523-1.989-2.535-3.605-2.52l-6.295-.424-.276 4.03-.267 4.03 6.272.425z"/>
        <path fill="#D21B1F" fill-rule="nonzero" d="M253.095 255.293c-.065.648.018 1.302.244 1.913.544 1.52 1.99 2.53 3.604 2.519l6.296.417.086-1.283c-9.609-.646-10.144-2.149-10.23-3.566z"/>
        <path fill="#0B5E9C" fill-rule="nonzero" d="M273.973 256.71c-.022.649-.192 1.284-.496 1.857-.743 1.448-2.327 2.26-3.935 2.015l-6.296-.425.087-1.283c9.632.63 10.364-.826 10.64-2.164z"/>
        <path fill="#0091D3" fill-rule="nonzero" d="M269.463 253.05l-5.705-.378-.063.913 5.705.378c.164.011.32-.065.412-.201.09-.136.103-.31.031-.456-.072-.147-.216-.245-.38-.256z"/>
        <path fill="#F37248" fill-rule="nonzero" d="M257.934 252.279c-.252-.016-.468.176-.484.429-.015.252.177.468.43.484l5.815.393.063-.913-5.824-.393z"/>
        <path fill="red" fill-rule="nonzero" d="M247.373 254.514c-1.357.873-2.013 2.508-1.636 4.077.281 1.211 1.066 2.244 2.156 2.842 1.407.795 3.163.612 4.375-.457l5.053-3.81-2.44-3.227-2.432-3.227-5.076 3.802z"/>
        <path fill="#0071BC" fill-rule="nonzero" d="M262.35 253.341c1.356-.877 2.012-2.514 1.636-4.085-.28-1.2-1.055-2.227-2.132-2.825-1.408-.794-3.163-.61-4.376.456l-5.052 3.81 2.431 3.227 2.44 3.227 5.052-3.81z"/>
        <path fill="#D21B1F" fill-rule="nonzero" d="M246.437 260.134c.38.538.878.983 1.456 1.299 1.407.795 3.163.612 4.375-.457l5.053-3.81-.787-1.03c-7.713 5.8-9.13 4.982-10.097 3.998z"/>
        <path fill="#0B5E9C" fill-rule="nonzero" d="M263.144 247.525c.405.507.693 1.099.842 1.731.377 1.57-.28 3.205-1.637 4.077l-5.013 3.818-.787-1.031c7.673-5.81 7.272-7.391 6.595-8.595z"/>
        <path fill="#0091D3" fill-rule="nonzero" d="M257.336 247.721l-4.548 3.48.55.731 4.565-3.447c.165-.164.183-.426.042-.611-.142-.186-.399-.237-.6-.121l-.009-.032z"/>
        <path fill="#F37248" fill-rule="nonzero" d="M248.129 254.687c-.202.15-.244.435-.095.638.156.2.443.238.646.086l4.659-3.51-.551-.732-4.66 3.518z"/>
        <ellipse cx="102.085" cy="247.114" fill="#CCC" fill-rule="nonzero" rx="10.862" ry="10.86" transform="rotate(-76.8 102.085 247.114)"/>
        <ellipse cx="101.572" cy="246.619" fill="#FFF" fill-rule="nonzero" rx="10.35" ry="10.349" transform="rotate(-76.79 101.572 246.619)"/>
        <ellipse cx="101.575" cy="246.598" fill="#E6E6E6" fill-rule="nonzero" rx="9.673" ry="9.672" transform="rotate(-77.52 101.575 246.598)"/>
        <ellipse cx="101.575" cy="246.598" fill="#E6E6E6" fill-rule="nonzero" rx="9.673" ry="9.672" transform="rotate(-77.52 101.575 246.598)"/>
        <path fill="#FFF" fill-rule="nonzero" d="M102.746 256.198v-19.165c-.39-.044-.781-.067-1.173-.071v19.347c.393-.013.784-.05 1.173-.11z"/>
        <path fill="#CCC" fill-rule="nonzero" d="M100.983 256.253h1.172v-19.299h-1.172v19.3z"/>
        <ellipse cx="88.307" cy="253.33" fill="#C32F2F" fill-rule="nonzero" rx="7.17" ry="9.719" transform="rotate(-80.8 88.307 253.33)"/>
        <path fill="#E43839" fill-rule="nonzero" d="M96.97 253.113c.15-.917.062-1.857-.252-2.731-1.792-2.272-4.397-3.757-7.264-4.14-5.296-.858-10.105 1.613-10.742 5.51-.144.914-.055 1.851.26 2.723 1.79 2.274 4.395 3.762 7.263 4.148 5.296.873 10.105-1.606 10.734-5.51z"/>
        <path fill="#E65040" fill-rule="nonzero" d="M94.585 251.373c-.118 2.496-3.447 4.369-7.437 4.196-3.99-.173-7.146-2.362-7.035-4.84.11-2.48 3.439-4.37 7.436-4.188 3.998.18 7.146 2.345 7.036 4.832z"/>
        <path fill="#F47A56" fill-rule="nonzero" d="M90.343 248.288c0 .551-1.503 1-3.36 1.008-1.857.007-3.368-.418-3.376-.969-.008-.55 1.503-.991 3.36-1.007 1.857-.016 3.368.425 3.376.968z"/>
        <ellipse cx="73.608" cy="251.398" fill="#C32F2F" fill-rule="nonzero" rx="9.72" ry="7.17" transform="rotate(-44.16 73.608 251.398)"/>
        <path fill="#E43839" fill-rule="nonzero" d="M78.61 244.329c-.655-.665-1.467-1.152-2.361-1.417-2.892.077-5.64 1.28-7.657 3.353-3.849 3.739-4.722 9.075-1.976 11.917.655.664 1.467 1.152 2.361 1.417 2.892-.076 5.64-1.28 7.657-3.353 3.849-3.74 4.73-9.076 1.976-11.917z"/>
        <path fill="#E65040" fill-rule="nonzero" d="M75.784 245.218c1.936 1.575 1.456 5.368-1.078 8.47-2.534 3.1-6.146 4.329-8.074 2.754-1.928-1.574-1.448-5.375 1.047-8.469 2.494-3.093 6.177-4.337 8.105-2.755z"/>
        <path fill="#F47A56" fill-rule="nonzero" d="M70.78 246.777c.44.323-.095 1.802-1.197 3.298-1.102 1.495-2.36 2.448-2.786 2.125-.425-.323.095-1.787 1.196-3.298 1.102-1.511 2.346-2.424 2.786-2.125z"/>
        <path fill="red" fill-rule="nonzero" d="M110.34 252.066c-1.616.01-3.048 1.043-3.565 2.574-.41 1.162-.307 2.444.283 3.526.763 1.423 2.34 2.208 3.935 1.96l6.296-.52-.33-4.022-.331-4.03-6.288.512z"/>
        <path fill="#0071BC" fill-rule="nonzero" d="M123.608 259.071c1.618-.008 3.053-1.041 3.573-2.574.406-1.163.3-2.445-.291-3.526-.763-1.422-2.34-2.208-3.935-1.96l-6.296.52.33 4.03.331 4.022 6.288-.512z"/>
        <path fill="#D21B1F" fill-rule="nonzero" d="M106.539 256.316c.031.648.209 1.28.52 1.85.762 1.423 2.34 2.208 3.934 1.96l6.296-.52-.103-1.283c-9.6.788-10.356-.66-10.647-2.007z"/>
        <path fill="#0B5E9C" fill-rule="nonzero" d="M127.393 254.616c.075.643.003 1.295-.212 1.905-.52 1.53-1.95 2.562-3.565 2.574l-6.296.511-.102-1.283c9.593-.779 10.104-2.33 10.175-3.707z"/>
        <path fill="#0091D3" fill-rule="nonzero" d="M122.396 251.68l-5.697.465.07.905 5.698-.464c.174.004.337-.09.417-.246.081-.154.066-.342-.038-.482-.103-.14-.278-.21-.45-.178z"/>
        <path fill="#F37248" fill-rule="nonzero" d="M110.883 252.617c-.12.008-.233.064-.311.156-.079.092-.117.212-.106.332.008.121.064.234.155.314.092.08.212.12.333.111l5.815-.48-.07-.905-5.816.472z"/>
        <path fill="red" fill-rule="nonzero" d="M95.033 260.567c-1.589-.253-3.165.523-3.934 1.936-.597 1.079-.709 2.36-.307 3.526.51 1.532 1.935 2.572 3.549 2.59l6.296.55.346-4.021.354-4.03-6.304-.551z"/>
        <path fill="#0071BC" fill-rule="nonzero" d="M106.94 269.72c1.59.258 3.169-.519 3.935-1.936.601-1.077.713-2.36.307-3.526-.51-1.532-1.935-2.571-3.55-2.59l-6.295-.55-.354 4.03-.346 4.022 6.303.55z"/>
        <path fill="#D21B1F" fill-rule="nonzero" d="M90.571 264.116c-.074.645-.004 1.299.205 1.913.51 1.532 1.935 2.572 3.55 2.59l6.295.55.11-1.282c-9.593-.835-10.097-2.385-10.16-3.77z"/>
        <path fill="#0B5E9C" fill-rule="nonzero" d="M111.418 265.935c-.036.649-.219 1.281-.535 1.85-.765 1.418-2.345 2.196-3.935 1.936l-6.296-.551.11-1.283c9.594.842 10.357-.606 10.656-1.952z"/>
        <path fill="#0091D3" fill-rule="nonzero" d="M106.98 262.22l-5.698-.496-.079.913 5.698.496c.252.021.474-.165.496-.418.021-.252-.165-.474-.417-.495z"/>
        <path fill="#F37248" fill-rule="nonzero" d="M95.474 261.196c-.25-.014-.467.17-.496.418-.01.12.027.241.106.334.078.093.19.151.311.161l5.808.512.079-.913-5.808-.512z"/>
        <rect width="24.868" height="7.981" x="55.127" y="256.159" fill="#E6E6E6" fill-rule="nonzero" rx="2.62"/>
        <path fill="#FFF" fill-rule="nonzero" d="M79.987 257.403v-.158c.002-.289-.112-.566-.316-.77-.204-.204-.482-.318-.77-.316H56.213c-.289-.002-.566.112-.77.316-.205.204-.318.481-.316.77v.197c3.942-.016 20.004-.094 24.86-.04z"/>
        <path fill="#CCC" fill-rule="nonzero" d="M79.987 262.889v.157c.002.289-.112.566-.316.77-.204.205-.482.318-.77.316H56.213c-.289.002-.566-.111-.77-.316-.205-.204-.318-.481-.316-.77v-.205c3.942.024 20.004.103 24.86.048z"/>
    </g>
</svg>
